<?xml version="1.0" encoding="UTF-8" standalone="no"?>
<svg
   width="101"
   height="110"
   viewBox="0 0 101 110"
   fill="none"
   version="1.1"
   id="svg32"
   sodipodi:docname="glarus.svg"
   inkscape:version="1.4 (e7c3feb100, 2024-10-09)"
   xmlns:inkscape="http://www.inkscape.org/namespaces/inkscape"
   xmlns:sodipodi="http://sodipodi.sourceforge.net/DTD/sodipodi-0.dtd"
   xmlns="http://www.w3.org/2000/svg"
   xmlns:svg="http://www.w3.org/2000/svg">
  <defs
     id="defs32" />
  <sodipodi:namedview
     id="namedview32"
     pagecolor="#000000"
     bordercolor="#000000"
     borderopacity="0.25"
     inkscape:showpageshadow="2"
     inkscape:pageopacity="0.0"
     inkscape:pagecheckerboard="0"
     inkscape:deskcolor="#d1d1d1"
     inkscape:zoom="5.3909091"
     inkscape:cx="50.455312"
     inkscape:cy="55"
     inkscape:window-width="1536"
     inkscape:window-height="802"
     inkscape:window-x="0"
     inkscape:window-y="0"
     inkscape:window-maximized="1"
     inkscape:current-layer="svg32" />
  <path
     d="M69.2807 39.7424V30.4552C69.7726 30.3591 70.2263 30.1292 70.5892 29.792C70.9521 29.4548 71.2092 29.0244 71.3306 28.5506C71.452 28.0768 71.4327 27.5793 71.275 27.1157C71.1173 26.6522 70.8276 26.2418 70.4396 25.9322C70.0517 25.6226 69.5814 25.4266 69.0835 25.3669C68.5856 25.3072 68.0805 25.3863 67.6269 25.595C67.1733 25.8037 66.79 26.1334 66.5214 26.5458C66.2528 26.9582 66.11 27.4363 66.1096 27.9246C66.1102 28.1685 66.1456 28.4112 66.215 28.6456L61.3604 30.3355C61.0918 29.901 60.6977 29.5531 60.2272 29.3352L62.5228 17.4005C63.2256 17.3918 63.896 17.1118 64.3867 16.622C64.8773 16.1322 65.1479 15.4728 65.139 14.7888C65.1301 14.1048 64.8423 13.4522 64.3391 12.9747C63.8358 12.4972 63.1582 12.2338 62.4554 12.2425C61.8999 12.2432 61.3588 12.4148 60.9095 12.7327L53.156 6.42621C53.4791 5.81969 53.5413 5.1131 53.3291 4.4619C53.1169 3.8107 52.6475 3.26822 52.0244 2.95381C51.4012 2.6394 50.6752 2.57881 50.0061 2.78537C49.337 2.99192 48.7796 3.44871 48.4566 4.05523L38.0357 2.55913C38.0332 2.22063 37.9622 1.88593 37.8268 1.57414C37.6914 1.26234 37.4943 0.979556 37.2466 0.741925C36.9989 0.504294 36.7055 0.316473 36.3832 0.189185C36.061 0.0618965 35.7161 -0.00236595 35.3683 6.65614e-05C35.0205 0.00249907 34.6766 0.0715775 34.3562 0.20336C34.0359 0.335144 33.7453 0.527049 33.5012 0.768119C33.257 1.00919 33.064 1.29471 32.9332 1.60836C32.8024 1.92202 32.7364 2.25768 32.7389 2.59617L23.214 4.74772C22.9053 4.20024 22.402 3.78119 21.7984 3.56918C21.1949 3.35717 20.5326 3.36677 19.9358 3.59618C19.339 3.82559 18.8487 4.25904 18.5569 4.81522C18.2651 5.37141 18.1918 6.0121 18.3508 6.61713C18.5098 7.22216 18.8901 7.74994 19.4205 8.10147C19.9508 8.453 20.5947 8.60412 21.2314 8.52649C21.8681 8.44886 22.4538 8.1478 22.8787 7.6798C23.3035 7.2118 23.5383 6.60901 23.5391 5.9845C23.5391 5.89331 23.5391 5.80497 23.5244 5.71663L32.9263 3.59073C33.1374 4.09969 33.5098 4.52992 33.9892 4.81896L32.2324 10.8718C32.0617 10.8387 31.8881 10.8215 31.7141 10.8205C31.0565 10.8216 30.4227 11.0605 29.9358 11.4907C29.4489 11.9209 29.1435 12.5118 29.0789 13.1487L12.3891 14.6648C12.2764 14.2776 12.0716 13.9216 11.7913 13.6257C11.511 13.3298 11.1631 13.1023 10.7757 12.9615C10.3884 12.8207 9.97237 12.7706 9.56141 12.8152C9.15045 12.8599 8.75606 12.998 8.41012 13.2185C8.06418 13.439 7.77641 13.7356 7.57007 14.0844C7.36373 14.4331 7.24462 14.8243 7.22237 15.2261C7.20012 15.628 7.27535 16.0293 7.44198 16.3977C7.60861 16.766 7.86196 17.091 8.18156 17.3464L3.6724 26.1378C3.48012 26.0959 3.28382 26.074 3.08679 26.0723C2.42673 26.0711 1.79001 26.3098 1.30125 26.7416C0.812484 27.1733 0.506875 27.767 0.444244 28.4066C0.381612 29.0461 0.566467 29.6853 0.962622 30.1991C1.35878 30.713 1.93771 31.0644 2.5861 31.1847L2.25816 39.8764C1.59416 39.973 0.992588 40.3113 0.57499 40.8229C0.157392 41.3345 -0.0450947 41.9814 0.00844424 42.6327C0.0619831 43.2841 0.367555 43.8913 0.863418 44.3318C1.35928 44.7724 2.00846 45.0133 2.6798 45.0059C2.8202 45.0053 2.96029 44.9929 3.0985 44.9688L7.38513 53.766C7.03355 54.2356 6.85624 54.8075 6.88226 55.3881C6.90828 55.9686 7.13607 56.5233 7.52833 56.9614C7.9206 57.3994 8.45408 57.6949 9.0414 57.7993C9.62873 57.9037 10.2351 57.811 10.7612 57.5362L18.986 63.9082C18.7259 64.5094 18.7095 65.1841 18.9402 65.7966C19.1708 66.409 19.6314 66.9137 20.229 67.2089C20.8267 67.504 21.5171 67.5678 22.1612 67.3874C22.8053 67.2069 23.3551 66.7957 23.7001 66.2364L32.8619 67.7753C32.903 68.4164 33.1899 69.0192 33.6658 69.4645C34.1416 69.9097 34.7718 70.1648 35.4317 70.1795C36.0917 70.1942 36.7332 69.9673 37.2295 69.5438C37.7258 69.1202 38.0406 68.5308 38.1118 67.8921L48.2399 65.6123C48.5608 66.0651 49.022 66.4063 49.5563 66.5858C50.0905 66.7654 50.6698 66.774 51.2094 66.6104C51.749 66.4468 52.2207 66.1195 52.5557 65.6764C52.8906 65.2334 53.0712 64.6976 53.0711 64.1475C53.0706 63.9027 53.0351 63.6591 52.9657 63.4237L61.2403 57.653C61.8272 58.0058 62.5329 58.1206 63.2057 57.9727C63.8786 57.8248 64.4651 57.426 64.8392 56.8619C65.2133 56.2978 65.3453 55.6135 65.2067 54.9558C65.0681 54.2981 64.6701 53.7195 64.0981 53.3442L68.1973 44.795C68.885 44.9348 69.6015 44.8031 70.1893 44.4287C70.7772 44.0543 71.1881 43.468 71.3318 42.7988C71.4754 42.1295 71.34 41.4321 70.9554 40.86C70.5707 40.2879 69.9683 39.888 69.2807 39.7481M20.8863 7.93657C20.4887 7.93713 20.1 7.82289 19.7692 7.60829C19.4385 7.3937 19.1806 7.08842 19.0282 6.73109C18.8758 6.37375 18.8358 5.98045 18.9132 5.60097C18.9906 5.22149 19.1819 4.87289 19.463 4.59932C19.7441 4.32575 20.1023 4.1395 20.4922 4.06416C20.8821 3.98882 21.2862 4.02778 21.6534 4.1761C22.0205 4.32441 22.3342 4.57542 22.5547 4.89734C22.7752 5.21926 22.8925 5.59762 22.892 5.9845C22.892 6.50223 22.6806 6.99874 22.3045 7.36482C21.9284 7.73091 21.4182 7.93657 20.8863 7.93657ZM68.7595 25.9725C69.157 25.972 69.5458 26.0862 69.8765 26.3008C70.2073 26.5154 70.4652 26.8207 70.6176 27.178C70.77 27.5353 70.81 27.9286 70.7326 28.3081C70.6552 28.6876 70.4638 29.0362 70.1827 29.3098C69.9016 29.5833 69.5435 29.7696 69.1536 29.8449C68.7636 29.9203 68.3596 29.8813 67.9924 29.733C67.6253 29.5847 67.3116 29.3337 67.0911 29.0118C66.8706 28.6898 66.7532 28.3115 66.7538 27.9246C66.7546 27.4071 66.9661 26.911 67.3421 26.5451C67.7181 26.1792 68.2278 25.9733 68.7595 25.9725ZM66.7099 29.5489C67.0981 30.0176 67.6433 30.3384 68.25 30.4552V39.7538C67.6549 39.8741 67.1208 40.1909 66.7383 40.6505C66.3557 41.1101 66.148 41.6843 66.1506 42.2758C66.1506 42.3157 66.1506 42.3528 66.1506 42.3927L52.9394 44.5214C52.8366 44.2546 52.6892 44.0062 52.5031 43.7862L58.2449 34.0971C58.5182 34.1887 58.8051 34.2358 59.0941 34.2368C59.7946 34.2322 60.4648 33.9582 60.9585 33.4745C61.4522 32.9908 61.7293 32.3367 61.7293 31.6549C61.7285 31.529 61.7187 31.4033 61.7 31.2787L66.7099 29.5489ZM48.4624 45.4333C48.4624 45.0473 48.58 44.6699 48.8004 44.3488C49.0208 44.0278 49.3341 43.7776 49.7006 43.6299C50.0671 43.4821 50.4703 43.4435 50.8594 43.5188C51.2485 43.5941 51.6059 43.78 51.8864 44.053C52.1669 44.326 52.3579 44.6739 52.4353 45.0525C52.5127 45.4312 52.4729 45.8237 52.3211 46.1804C52.1693 46.5371 51.9123 46.8419 51.5824 47.0564C51.2526 47.2709 50.8648 47.3854 50.4681 47.3854C49.9364 47.3847 49.4267 47.1788 49.0507 46.8128C48.6747 46.4469 48.4632 45.9508 48.4624 45.4333ZM61.1056 31.6634C61.1056 32.0495 60.988 32.4269 60.7676 32.748C60.5472 33.069 60.234 33.3192 59.8675 33.4669C59.501 33.6147 59.0977 33.6533 58.7086 33.578C58.3196 33.5027 57.9622 33.3168 57.6817 33.0438C57.4012 32.7708 57.2102 32.4229 57.1328 32.0443C57.0554 31.6656 57.0951 31.2731 57.2469 30.9164C57.3987 30.5597 57.6558 30.2549 57.9856 30.0404C58.3155 29.8259 58.7032 29.7114 59.0999 29.7114C59.6316 29.7121 60.1413 29.918 60.5173 30.284C60.8933 30.6499 61.1049 31.146 61.1056 31.6634ZM59.2258 29.0987H59.0999C58.5568 29.089 58.0238 29.243 57.5741 29.5395C57.1243 29.836 56.7796 30.2605 56.5873 30.755C56.395 31.2495 56.3644 31.7897 56.4997 32.3018C56.635 32.8138 56.9296 33.2727 57.3431 33.6155L51.6803 43.1593C51.3034 42.9686 50.8841 42.8708 50.4593 42.8743C49.9316 42.8741 49.4158 43.0273 48.9781 43.3143C48.5404 43.6012 48.2007 44.0088 48.0025 44.4849C47.8043 44.9609 47.7567 45.4837 47.8658 45.9863C47.9749 46.4888 48.2356 46.9482 48.6147 47.3056L43.0192 54.43C42.4317 54.1334 41.751 54.0628 41.1125 54.2323C40.474 54.4018 39.9244 54.7989 39.5729 55.3447L23.176 51.9051C23.1615 51.2373 22.88 50.6014 22.3913 50.1326L34.3962 37.3515C34.9856 37.7173 35.7002 37.8403 36.3827 37.6933C37.0653 37.5463 37.6599 37.1415 38.0357 36.5678C38.4116 35.9942 38.5379 35.2987 38.3869 34.6344C38.2359 33.9701 37.8199 33.3914 37.2305 33.0256L42.4248 22.9034C42.6875 22.9872 42.9623 23.0295 43.2388 23.0288C43.8871 23.0331 44.5144 22.8048 45.0005 22.3873C45.4867 21.9699 45.7977 21.3927 45.874 20.7661L60.0223 15.836C60.1136 16.0456 60.2338 16.2421 60.3795 16.4202L52.1634 26.001C51.5564 25.7466 50.8738 25.7211 50.2485 25.9294C49.6232 26.1378 49.0999 26.5651 48.7805 27.1283C48.4611 27.6914 48.3684 28.3501 48.5204 28.9761C48.6725 29.6021 49.0584 30.1506 49.6031 30.515C50.1478 30.8793 50.8123 31.0334 51.4672 30.9472C52.1222 30.861 52.7208 30.5407 53.1465 30.0487C53.5723 29.5567 53.7946 28.9281 53.7704 28.2852C53.7462 27.6424 53.4771 27.0313 53.0155 26.571L61.1788 17.0614C61.2848 17.1203 61.3954 17.1708 61.5097 17.2125L59.2258 29.0987ZM41.807 58.6561C41.4095 58.6567 41.0207 58.5424 40.69 58.3278C40.3592 58.1132 40.1013 57.808 39.9489 57.4506C39.7965 57.0933 39.7565 56.7 39.8339 56.3205C39.9113 55.941 40.1027 55.5924 40.3838 55.3189C40.6649 55.0453 41.023 54.859 41.4129 54.7837C41.8028 54.7084 42.207 54.7473 42.5741 54.8956C42.9413 55.0439 43.2549 55.295 43.4754 55.6169C43.6959 55.9388 43.8133 56.3172 43.8127 56.704C43.8127 56.9604 43.7608 57.2142 43.66 57.4511C43.5592 57.6879 43.4115 57.9031 43.2253 58.0844C43.039 58.2656 42.8179 58.4094 42.5746 58.5075C42.3312 58.6056 42.0704 58.6561 41.807 58.6561ZM21.7676 62.3608L21.4748 54.3815C21.82 54.2526 22.1337 54.055 22.3959 53.8013C22.6581 53.5476 22.8629 53.2434 22.9974 52.9082L39.2011 56.3079C39.179 56.4408 39.1672 56.5751 39.1659 56.7097C39.1657 56.9479 39.2002 57.1849 39.2684 57.4136L23.4249 63.2071C23.0011 62.7358 22.4147 62.4317 21.7764 62.3522M22.5347 51.9735C22.5347 52.3603 22.4169 52.7383 22.196 53.0599C21.9752 53.3814 21.6613 53.632 21.2941 53.7799C20.9269 53.9277 20.5229 53.9663 20.1332 53.8906C19.7435 53.815 19.3856 53.6285 19.1048 53.3548C18.824 53.0811 18.6329 52.7325 18.5557 52.3531C18.4786 51.9737 18.5188 51.5806 18.6712 51.2234C18.8237 50.8662 19.0816 50.5611 19.4123 50.3467C19.743 50.1322 20.1317 50.018 20.529 50.0186C20.7927 50.0186 21.0537 50.0692 21.2973 50.1674C21.5408 50.2657 21.762 50.4098 21.9483 50.5913C22.1346 50.7729 22.2823 50.9884 22.3829 51.2256C22.4835 51.4628 22.5351 51.7169 22.5347 51.9735ZM34.5396 33.4217L34.9232 33.2365C35.4062 33.0628 35.9393 33.076 36.4126 33.2733C36.886 33.4707 37.2635 33.8372 37.4675 34.2974C37.6714 34.7576 37.6863 35.2764 37.509 35.7469C37.3317 36.2174 36.9758 36.6039 36.5145 36.8266C36.0533 37.0494 35.5218 37.0915 35.0295 36.9443C34.5373 36.7971 34.1219 36.4717 33.8687 36.0353C33.6156 35.5989 33.5441 35.0846 33.6689 34.5984C33.7937 34.1121 34.1054 33.691 34.5396 33.4217ZM41.2448 20.4554C41.2443 20.0686 41.3616 19.6902 41.5821 19.3683C41.8026 19.0464 42.1163 18.7954 42.4834 18.647C42.8506 18.4987 43.2547 18.4598 43.6446 18.5351C44.0345 18.6104 44.3927 18.7967 44.6738 19.0703C44.9549 19.3438 45.1462 19.6924 45.2236 20.0719C45.301 20.4514 45.261 20.8447 45.1086 21.202C44.9562 21.5594 44.6983 21.8646 44.3676 22.0792C44.0368 22.2938 43.648 22.4081 43.2505 22.4075C42.7188 22.4068 42.2091 22.2009 41.8331 21.8349C41.4572 21.469 41.2456 20.9729 41.2448 20.4554ZM53.1004 28.3692C53.101 28.756 52.9836 29.1344 52.7631 29.4563C52.5426 29.7782 52.2289 30.0292 51.8618 30.1776C51.4947 30.3259 51.0905 30.3648 50.7006 30.2895C50.3107 30.2142 49.9526 30.0279 49.6715 29.7543C49.3904 29.4808 49.199 29.1322 49.1216 28.7527C49.0442 28.3732 49.0842 27.9799 49.2366 27.6226C49.389 27.2652 49.6469 26.96 49.9777 26.7454C50.3084 26.5308 50.6972 26.4165 51.0947 26.4171C51.6267 26.4171 52.1368 26.6228 52.513 26.9888C52.8891 27.3549 53.1004 27.8514 53.1004 28.3692ZM64.4612 14.8244C64.4612 15.211 64.3433 15.589 64.1226 15.9105C63.9019 16.232 63.5882 16.4825 63.2212 16.6305C62.8542 16.7784 62.4503 16.8172 62.0607 16.7417C61.671 16.6663 61.3131 16.4801 61.0322 16.2067C60.7513 15.9333 60.56 15.585 60.4825 15.2058C60.405 14.8265 60.4448 14.4335 60.5968 14.0763C60.7488 13.719 61.0063 13.4137 61.3366 13.1989C61.6669 12.9841 62.0553 12.8695 62.4525 12.8695C62.9852 12.8695 63.4961 13.0754 63.8728 13.442C64.2495 13.8087 64.4612 14.3059 64.4612 14.8244ZM50.8634 3.18322C51.2608 3.18322 51.6493 3.29794 51.9796 3.51288C52.31 3.72781 52.5675 4.0333 52.7194 4.39068C52.8713 4.74806 52.9109 5.14127 52.8332 5.52057C52.7555 5.89986 52.5639 6.24819 52.2827 6.52148C52.0015 6.79476 51.6433 6.98072 51.2535 7.05583C50.8636 7.13094 50.4597 7.09182 50.0927 6.94342C49.7257 6.79502 49.4122 6.54401 49.1919 6.22215C48.9715 5.90029 48.8542 5.52205 48.8548 5.13528C48.8548 4.87869 48.9067 4.62462 49.0077 4.3876C49.1087 4.15058 49.2567 3.93526 49.4433 3.75396C49.6298 3.57265 49.8513 3.42892 50.0949 3.33099C50.3386 3.23306 50.5998 3.18284 50.8634 3.18322ZM33.3801 2.63037C33.3801 2.2436 33.498 1.86553 33.7189 1.54398C33.9397 1.22243 34.2536 0.97187 34.6208 0.823991C34.988 0.676112 35.392 0.637564 35.7817 0.713226C36.1714 0.788888 36.5293 0.975359 36.8101 1.24904C37.0909 1.52273 37.282 1.87133 37.3592 2.25073C37.4363 2.63014 37.3961 3.0233 37.2437 3.38046C37.0912 3.73762 36.8333 4.04274 36.5026 4.25721C36.1719 4.47167 35.7832 4.58585 35.3858 4.58529C35.1222 4.58529 34.8612 4.5347 34.6176 4.43642C34.3741 4.33814 34.1529 4.1941 33.9666 4.01253C33.7803 3.83096 33.6326 3.61543 33.532 3.37827C33.4314 3.1411 33.3798 2.88696 33.3801 2.63037ZM34.8881 5.16378C35.5147 5.28645 36.1658 5.18325 36.7201 4.87341C37.2744 4.56357 37.6941 4.06821 37.901 3.47959L48.2311 4.96145C48.2311 5.02129 48.2311 5.07829 48.2311 5.13528C48.2316 5.37921 48.2671 5.62187 48.3365 5.85627L33.9892 12.0544C33.7752 11.7151 33.4836 11.4284 33.1371 11.2166L34.8881 5.16378ZM31.7287 11.4503C32.1254 11.4503 32.5132 11.5648 32.843 11.7793C33.1729 11.9938 33.43 12.2986 33.5818 12.6553C33.7336 13.012 33.7733 13.4045 33.6959 13.7832C33.6185 14.1619 33.4275 14.5097 33.147 14.7827C32.8665 15.0557 32.5091 15.2416 32.12 15.3169C31.731 15.3922 31.3277 15.3536 30.9612 15.2058C30.5947 15.0581 30.2815 14.8079 30.0611 14.4869C29.8407 14.1659 29.723 13.7884 29.723 13.4024C29.723 12.8846 29.9344 12.3881 30.3105 12.022C30.6866 11.656 31.1968 11.4503 31.7287 11.4503ZM12.4682 15.6679L29.1901 14.1461C29.3746 14.7382 29.7714 15.246 30.3082 15.5773C30.845 15.9086 31.4862 16.0412 32.1151 15.9511C32.744 15.861 33.3187 15.5542 33.7346 15.0864C34.1506 14.6186 34.3802 14.021 34.3815 13.4024C34.3803 13.2687 34.3685 13.1353 34.3464 13.0034L48.8079 6.75393C49.2387 7.27392 49.861 7.60981 50.5423 7.69017C51.2236 7.77053 51.9103 7.58902 52.4562 7.18424L60.2009 13.4822C59.9425 13.8878 59.8056 14.3556 59.8056 14.8329L45.7862 19.7231C45.6702 19.3378 45.4634 18.9842 45.1822 18.6904C44.901 18.3966 44.5532 18.1708 44.1666 18.0309C43.7799 17.891 43.365 17.8409 42.955 17.8846C42.5449 17.9283 42.151 18.0645 41.8045 18.2825C41.4581 18.5005 41.1688 18.7942 40.9595 19.1402C40.7503 19.4862 40.627 19.875 40.5993 20.2756C40.5717 20.6762 40.6406 21.0775 40.8004 21.4476C40.9603 21.8177 41.2067 22.1464 41.5201 22.4075L36.3023 32.5754C35.7892 32.4344 35.2438 32.4523 34.7417 32.6267L29.5854 22.4816C30.0893 22.1195 30.4442 21.5944 30.5864 21.0007C30.7287 20.407 30.6489 19.7833 30.3615 19.2416C30.0741 18.7 29.5978 18.2756 29.0181 18.0447C28.4384 17.8138 27.7931 17.7915 27.1979 17.9816C26.6028 18.1718 26.0967 18.5621 25.7705 19.0826C25.4442 19.603 25.3191 20.2195 25.4176 20.8216C25.5161 21.4237 25.8317 21.9719 26.3078 22.3681C26.784 22.7642 27.3896 22.9822 28.016 22.9832C28.2271 22.9819 28.4373 22.957 28.6426 22.9091L33.8428 33.1453C33.5696 33.383 33.3505 33.6736 33.1992 33.9984C33.048 34.3233 32.968 34.6752 32.9644 35.0318L17.3521 38.5826C17.1237 38.1799 16.7881 37.8443 16.3806 37.6112C15.9732 37.3781 15.5087 37.2559 15.0361 37.2575H14.8984L11.1213 17.5943C11.1747 17.5657 11.2265 17.5343 11.2765 17.5003L18.4443 26.4798C17.9669 26.9147 17.6726 27.5069 17.6188 28.1412C17.565 28.7755 17.7555 29.4066 18.1532 29.9119C18.5508 30.4172 19.1273 30.7605 19.7706 30.8751C20.4139 30.9897 21.0779 30.8674 21.6337 30.532C22.1895 30.1966 22.5973 29.6721 22.7779 29.0604C22.9585 28.4487 22.8989 27.7935 22.6107 27.2221C22.3226 26.6508 21.8264 26.2041 21.2188 25.9689C20.6111 25.7338 19.9353 25.7269 19.3227 25.9497L12.0026 16.7907C12.236 16.4578 12.3854 16.0761 12.4389 15.6764M27.9984 22.3648C27.601 22.3648 27.2126 22.25 26.8822 22.0351C26.5518 21.8202 26.2944 21.5147 26.1424 21.1573C25.9905 20.7999 25.9509 20.4067 26.0286 20.0274C26.1064 19.6481 26.298 19.2998 26.5792 19.0265C26.8604 18.7532 27.2185 18.5673 27.6084 18.4922C27.9982 18.417 28.4022 18.4562 28.7691 18.6046C29.1361 18.753 29.4496 19.004 29.67 19.3258C29.8903 19.6477 30.0076 20.0259 30.0071 20.4127C30.0071 20.6693 29.9551 20.9234 29.8541 21.1604C29.7531 21.3974 29.6051 21.6127 29.4186 21.794C29.232 21.9753 29.0106 22.1191 28.7669 22.217C28.5232 22.3149 28.2621 22.3651 27.9984 22.3648ZM3.27126 39.922L3.60213 31.1875C4.00427 31.1078 4.38144 30.9369 4.70306 30.6888L12.7434 38.5114C12.4248 39.0187 12.3004 39.6191 12.3921 40.2069L5.07199 41.3867C4.90613 41.0238 4.65664 40.7029 4.34284 40.4489C4.02905 40.1948 3.65938 40.0146 3.26247 39.922M15.0039 37.8873C15.4005 37.8873 15.7883 38.0017 16.1182 38.2162C16.448 38.4307 16.7051 38.7356 16.8569 39.0923C17.0087 39.449 17.0484 39.8415 16.971 40.2202C16.8936 40.5988 16.7026 40.9466 16.4221 41.2196C16.1416 41.4926 15.7842 41.6786 15.3951 41.7539C15.0061 41.8292 14.6028 41.7905 14.2363 41.6428C13.8698 41.4951 13.5566 41.2449 13.3362 40.9238C13.1158 40.6028 12.9982 40.2254 12.9982 39.8393C12.9982 39.3216 13.2095 38.8251 13.5856 38.459C13.9618 38.0929 14.4719 37.8873 15.0039 37.8873ZM20.248 26.4114C20.6446 26.4114 21.0324 26.5259 21.3623 26.7404C21.6921 26.9549 21.9492 27.2597 22.101 27.6164C22.2528 27.9731 22.2925 28.3656 22.2151 28.7443C22.1377 29.1229 21.9467 29.4708 21.6662 29.7438C21.3857 30.0168 21.0283 30.2027 20.6392 30.278C20.2502 30.3533 19.8469 30.3147 19.4804 30.1669C19.1139 30.0192 18.8007 29.769 18.5803 29.448C18.3599 29.1269 18.2423 28.7495 18.2423 28.3635C18.2423 27.8457 18.4536 27.3492 18.8297 26.9831C19.2058 26.6171 19.716 26.4114 20.248 26.4114ZM7.83605 15.3288C7.83547 14.9419 7.95286 14.5635 8.17334 14.2416C8.39383 13.9197 8.70751 13.6687 9.07465 13.5204C9.4418 13.3721 9.84591 13.3331 10.2358 13.4084C10.6257 13.4838 10.9839 13.67 11.265 13.9436C11.5461 14.2172 11.7374 14.5658 11.8148 14.9452C11.8923 15.3247 11.8522 15.718 11.6998 16.0754C11.5475 16.4327 11.2895 16.738 10.9588 16.9526C10.628 17.1672 10.2393 17.2814 9.84175 17.2808C9.30981 17.2808 8.79965 17.0752 8.42351 16.7091C8.04736 16.343 7.83605 15.8465 7.83605 15.3288ZM9.11853 17.808C9.35349 17.8746 9.59703 17.9082 9.84175 17.9078C9.93838 17.9078 10.035 17.9078 10.1346 17.8935L13.9029 37.5082C13.7526 37.5758 13.6103 37.6589 13.4784 37.7562L5.41457 29.908C5.73492 29.3547 5.83291 28.7053 5.68956 28.0857C5.54622 27.466 5.17175 26.9202 4.63865 26.5539L9.11853 17.808ZM1.08695 28.6541C1.08637 28.2672 1.20376 27.8889 1.42425 27.567C1.64473 27.245 1.95841 26.994 2.32555 26.8457C2.6927 26.6974 3.09681 26.6584 3.48672 26.7338C3.87663 26.8091 4.2348 26.9954 4.51589 27.2689C4.79697 27.5425 4.98834 27.8911 5.06575 28.2706C5.14316 28.6501 5.10313 29.0434 4.95074 29.4007C4.79835 29.758 4.54045 30.0633 4.20968 30.2779C3.87892 30.4925 3.49017 30.6068 3.09265 30.6062C2.56094 30.6054 2.05123 30.3995 1.67526 30.0336C1.29929 29.6677 1.08772 29.1716 1.08695 28.6541ZM0.679954 42.4212C0.679955 42.0344 0.797835 41.6563 1.01867 41.3348C1.23952 41.0132 1.55339 40.7627 1.92059 40.6148C2.28779 40.4669 2.69181 40.4284 3.08152 40.504C3.47124 40.5797 3.82914 40.7662 4.10993 41.0399C4.39072 41.3135 4.5818 41.6621 4.65897 42.0415C4.73614 42.421 4.69594 42.8141 4.54347 43.1713C4.39099 43.5284 4.13308 43.8336 3.80238 44.048C3.47168 44.2625 3.08304 44.3767 2.68565 44.3761C2.42201 44.3761 2.16096 44.3255 1.91743 44.2272C1.6739 44.129 1.45266 43.9849 1.26637 43.8033C1.08009 43.6218 0.932412 43.4062 0.831788 43.1691C0.731165 42.9319 0.679569 42.6778 0.679954 42.4212ZM7.56082 55.245C7.56082 54.8582 7.67869 54.4801 7.89953 54.1586C8.12037 53.8371 8.43425 53.5865 8.80145 53.4386C9.16865 53.2907 9.57267 53.2522 9.96239 53.3278C10.3521 53.4035 10.71 53.59 10.9908 53.8637C11.2716 54.1373 11.4627 54.4859 11.5398 54.8653C11.617 55.2448 11.5768 55.6379 11.4243 55.9951C11.2719 56.3522 11.0139 56.6574 10.6832 56.8718C10.3525 57.0863 9.96391 57.2005 9.56651 57.1999C9.30288 57.1999 9.04182 57.1493 8.79829 57.051C8.55475 56.9528 8.33352 56.8087 8.14723 56.6271C7.96095 56.4456 7.81327 56.23 7.71265 55.9929C7.61203 55.7557 7.56043 55.5016 7.56082 55.245ZM11.6015 56.8978C12.0288 56.4333 12.2676 55.8333 12.2733 55.2098C12.2789 54.5864 12.0511 53.9823 11.6324 53.5105C11.2136 53.0387 10.6327 52.7315 9.99808 52.6464C9.3635 52.5612 8.71879 52.7039 8.18449 53.0478L4.08525 44.624C4.46997 44.3941 4.78754 44.0718 5.00749 43.688C5.22745 43.3043 5.34242 42.872 5.34137 42.4326C5.34137 42.4155 5.34137 42.3955 5.34137 42.3784L12.7815 41.1758C13.0806 41.6586 13.5339 42.0326 14.0721 42.2408C14.6104 42.449 15.2039 42.4798 15.7618 42.3285C16.3197 42.1772 16.8114 41.8522 17.1615 41.4032C17.5117 40.9542 17.701 40.4059 17.7006 39.8422C17.7006 39.7453 17.7006 39.6484 17.683 39.5572L33.1664 36.0378C33.2708 36.2898 33.415 36.5245 33.5939 36.7331L21.5187 49.5854C21.1595 49.4458 20.7733 49.3845 20.3872 49.4056C20.001 49.4268 19.6243 49.5299 19.2835 49.7079C18.9427 49.8858 18.646 50.1342 18.4143 50.4356C18.1826 50.737 18.0215 51.0841 17.9424 51.4525C17.8632 51.821 17.8678 52.2018 17.956 52.5683C18.0441 52.9348 18.2136 53.2781 18.4526 53.5741C18.6916 53.87 18.9942 54.1115 19.3393 54.2815C19.6843 54.4515 20.0634 54.546 20.45 54.5582L20.7428 62.4292C20.3014 62.544 19.898 62.7678 19.5716 63.0789L11.6015 56.8978ZM21.4367 66.8719C21.0402 66.8713 20.6527 66.7564 20.3232 66.5415C19.9938 66.3267 19.7372 66.0216 19.5858 65.6649C19.4344 65.3081 19.3951 64.9157 19.4729 64.5372C19.5506 64.1588 19.7418 63.8112 20.0225 63.5385C20.3031 63.2658 20.6605 63.0801 21.0494 63.0051C21.4384 62.93 21.8416 62.9688 22.2079 63.1166C22.5742 63.2645 22.8873 63.5147 23.1075 63.8356C23.3278 64.1566 23.4454 64.5339 23.4454 64.9198C23.4454 65.1764 23.3934 65.4305 23.2924 65.6675C23.1914 65.9045 23.0434 66.1199 22.8569 66.3012C22.6703 66.4825 22.4489 66.6262 22.2052 66.7241C21.9615 66.8221 21.7004 66.8723 21.4367 66.8719ZM35.4913 69.4538C35.0939 69.4543 34.7052 69.3401 34.3745 69.1257C34.0438 68.9112 33.7859 68.6061 33.6334 68.2489C33.481 67.8918 33.4408 67.4986 33.5179 67.1192C33.5951 66.7398 33.7862 66.3912 34.067 66.1175C34.3478 65.8438 34.7057 65.6573 35.0954 65.5817C35.4851 65.506 35.8891 65.5446 36.2563 65.6925C36.6235 65.8403 36.9374 66.0909 37.1582 66.4124C37.3791 66.734 37.497 67.1121 37.497 67.4988C37.497 68.0168 37.2857 68.5136 36.9097 68.8802C36.5336 69.2467 36.0235 69.453 35.4913 69.4538ZM38.0591 66.889C37.9264 66.3246 37.6014 65.8205 37.1369 65.4587C36.6724 65.0969 36.0958 64.8988 35.5009 64.8964C34.9059 64.8941 34.3277 65.0878 33.8603 65.446C33.3928 65.8041 33.0637 66.3057 32.9263 66.869L24.0339 65.3473C24.1155 64.9276 24.0832 64.4944 23.9402 64.0906L39.7369 58.3113C39.9582 58.5847 40.2344 58.8114 40.5486 58.9776C40.8628 59.1438 41.2085 59.246 41.5646 59.278C41.9208 59.31 42.2798 59.2711 42.62 59.1637C42.9602 59.0563 43.2743 58.8826 43.5433 58.6533L48.1579 62.8025C47.804 63.3586 47.6834 64.0259 47.8212 64.6662L38.0591 66.889ZM50.4154 66.1281C50.0187 66.1281 49.6309 66.0136 49.3011 65.7991C48.9713 65.5846 48.7142 65.2798 48.5624 64.9231C48.4106 64.5664 48.3709 64.1739 48.4482 63.7952C48.5256 63.4165 48.7167 63.0687 48.9972 62.7957C49.2777 62.5227 49.635 62.3368 50.0241 62.2615C50.4132 62.1862 50.8165 62.2248 51.1829 62.3726C51.5494 62.5203 51.8627 62.7705 52.0831 63.0915C52.3035 63.4126 52.4211 63.79 52.4211 64.176C52.4211 64.4324 52.3692 64.6862 52.2684 64.9231C52.1676 65.1599 52.0199 65.3751 51.8337 65.5564C51.6474 65.7376 51.4263 65.8814 51.1829 65.9795C50.9396 66.0776 50.6788 66.1281 50.4154 66.1281ZM52.465 62.5488C52.0394 62.0342 51.4262 61.6992 50.753 61.6137C50.0799 61.5282 49.3989 61.6989 48.8518 62.09L44.167 57.8781C44.399 57.4284 44.4899 56.9223 44.4285 56.4226C44.367 55.923 44.1559 55.452 43.8215 55.0683L49.4814 47.8613C49.9176 48.0286 50.3918 48.0795 50.8551 48.0089C51.3183 47.9383 51.7538 47.7486 52.1166 47.4595L60.1335 54.0538C59.8821 54.4535 59.7493 54.9131 59.75 55.3818C59.7498 55.9844 59.9663 56.5681 60.3619 57.0318L52.465 62.5488ZM64.4202 55.3818C64.4207 55.7687 64.3033 56.147 64.0829 56.4689C63.8624 56.7909 63.5487 57.0419 63.1815 57.1902C62.8144 57.3385 62.4103 57.3775 62.0204 57.3021C61.6305 57.2268 61.2723 57.0405 60.9912 56.767C60.7101 56.4934 60.5188 56.1448 60.4414 55.7653C60.3639 55.3858 60.404 54.9925 60.5564 54.6352C60.7088 54.2779 60.9667 53.9726 61.2974 53.758C61.6282 53.5434 62.0169 53.4291 62.4145 53.4297C62.9462 53.4305 63.4559 53.6364 63.8318 54.0023C64.2078 54.3682 64.4194 54.8643 64.4202 55.3818ZM63.1582 52.9082C62.9168 52.8383 62.6663 52.8028 62.4145 52.8028C61.8496 52.8019 61.2994 52.9777 60.845 53.3043L52.7871 46.6787C52.9801 46.3273 53.0864 45.9371 53.0975 45.5388L66.3878 43.3958C66.5812 43.7935 66.8755 44.1367 67.2428 44.3932L63.1582 52.9082ZM68.7829 44.2564C68.3864 44.2559 67.9989 44.1409 67.6694 43.926C67.34 43.7112 67.0833 43.4061 66.932 43.0494C66.7806 42.6927 66.7413 42.3003 66.819 41.9218C66.8968 41.5433 67.088 41.1957 67.3686 40.923C67.6492 40.6503 68.0066 40.4647 68.3956 40.3896C68.7846 40.3145 69.1877 40.3533 69.5541 40.5011C69.9204 40.649 70.2335 40.8992 70.4537 41.2201C70.674 41.5411 70.7915 41.9184 70.7915 42.3043C70.7915 42.5609 70.7396 42.815 70.6386 43.052C70.5376 43.289 70.3896 43.5044 70.203 43.6857C70.0165 43.867 69.795 44.0107 69.5514 44.1086C69.3077 44.2066 69.0466 44.2568 68.7829 44.2564Z"
     fill="#7C07A9"
     id="path1"
     style="fill:#ffffff;fill-opacity:1" />
  <path
     d="M51.1121 25.6677C50.8351 25.6664 50.5596 25.7068 50.2952 25.7873L45.8036 21.413C45.9318 21.0972 45.9983 20.7609 45.9998 20.4213C46.0001 19.8233 45.7956 19.2422 45.4187 18.7699C45.0418 18.2976 44.514 17.961 43.9186 17.8132C43.3231 17.6655 42.6941 17.7151 42.1309 17.9541C41.5677 18.1932 41.1023 18.608 40.8084 19.1332H30.4695C30.1756 18.608 29.7103 18.1932 29.1471 17.9541C28.5838 17.7151 27.9548 17.6655 27.3594 17.8132C26.764 17.961 26.2361 18.2976 25.8592 18.7699C25.4823 19.2422 25.2779 19.8233 25.2782 20.4213C25.2788 20.6968 25.3223 20.9706 25.407 21.2335L21.1262 25.813C20.8436 25.7178 20.5468 25.6687 20.2478 25.6677C19.8775 25.6559 19.5085 25.7168 19.1627 25.8466C18.817 25.9765 18.5017 26.1726 18.2354 26.4235C17.9692 26.6743 17.7575 26.9747 17.6129 27.3067C17.4683 27.6388 17.3938 27.9957 17.3938 28.3564C17.3938 28.717 17.4683 29.074 17.6129 29.406C17.7575 29.7381 17.9692 30.0385 18.2354 30.2893C18.5017 30.5401 18.817 30.7363 19.1627 30.8661C19.5085 30.996 19.8775 31.0568 20.2478 31.0451C20.4569 31.0448 20.6652 31.0208 20.8685 30.9739L33.1663 47.6676C32.9503 48.0756 32.8453 48.5307 32.861 48.9894C32.8768 49.4481 33.0129 49.8953 33.2564 50.2883C33.4999 50.6814 33.8427 51.0073 34.2522 51.235C34.6616 51.4628 35.1241 51.5847 35.5957 51.5894C36.0673 51.594 36.5322 51.4811 36.9463 51.2615C37.3604 51.0418 37.7098 50.7227 37.9614 50.3345C38.213 49.9463 38.3584 49.5019 38.3836 49.0436C38.4089 48.5852 38.3133 48.1282 38.1058 47.716L46.1462 37.4769C46.3616 37.5298 46.5829 37.5566 46.805 37.5567C47.3046 37.5564 47.7947 37.4243 48.2232 37.1745C48.6518 36.9247 49.0028 36.5665 49.2389 36.138C49.475 35.7096 49.5873 35.2269 49.5641 34.7412C49.5408 34.2555 49.3827 33.7851 49.1066 33.3799C48.8305 32.9747 48.4468 32.6499 47.9962 32.44C47.5456 32.2301 47.045 32.143 46.5476 32.188C46.0502 32.2329 45.5746 32.4082 45.1713 32.6952C44.7681 32.9822 44.4524 33.3702 44.2576 33.8179H38.0385C37.7334 33.2737 37.2447 32.8488 36.6548 32.615C36.065 32.3811 35.4103 32.3527 34.8014 32.5345C34.1925 32.7164 33.6668 33.0973 33.3132 33.6128C32.9596 34.1284 32.7998 34.747 32.8608 35.364C32.9217 35.981 33.1998 36.5586 33.6479 36.9991C34.096 37.4396 34.6867 37.716 35.32 37.7815C35.9534 37.847 36.5905 37.6976 37.1237 37.3586C37.6569 37.0196 38.0535 36.5118 38.2464 35.921H44.2576C44.3032 36.0196 44.3561 36.1148 44.4157 36.206L36.4691 46.3225C36.1947 46.2364 35.9082 46.1921 35.6199 46.1914C35.3512 46.1927 35.0841 46.2311 34.8264 46.3054L22.6078 29.7257C22.8419 29.3485 22.9764 28.9208 22.9994 28.4808C23.0224 28.0407 22.9331 27.602 22.7396 27.2037L26.8388 22.8236C27.2147 23.0089 27.6297 23.1065 28.051 23.1086C28.6378 23.1084 29.2093 22.9266 29.683 22.5895C30.1567 22.2525 30.508 21.7776 30.6862 21.2335H40.6093C40.7875 21.7776 41.1388 22.2525 41.6125 22.5895C42.0862 22.9266 42.6577 23.1084 43.2445 23.1086C43.6043 23.1095 43.9606 23.0407 44.2928 22.9063L48.6497 27.1609C48.3808 27.6838 48.2945 28.2779 48.4039 28.8528C48.5133 29.4278 48.8124 29.9524 49.2559 30.3469C49.6993 30.7414 50.2629 30.9845 50.8611 31.0391C51.4592 31.0937 52.0594 30.9569 52.5705 30.6495C53.0816 30.342 53.4757 29.8808 53.693 29.3356C53.9104 28.7905 53.9391 28.1912 53.7748 27.6287C53.6105 27.0663 53.2622 26.5713 52.7828 26.2189C52.3033 25.8666 51.7188 25.676 51.118 25.6762"
     fill="#50026E"
     id="path2"
     style="fill:#ffffff;fill-opacity:1" />
  <path
     d="M77.3942 62.264C77.0147 62.2635 76.6436 62.3725 76.3279 62.5772C76.0121 62.782 75.7658 63.0733 75.6202 63.4143C75.4746 63.7554 75.4362 64.1308 75.5099 64.493C75.5836 64.8553 75.766 65.1881 76.0341 65.4495C76.3022 65.7108 76.6439 65.8889 77.016 65.9611C77.3881 66.0334 77.7739 65.9966 78.1245 65.8554C78.4751 65.7142 78.7748 65.4749 78.9857 65.1679C79.1966 64.8609 79.3091 64.4999 79.3091 64.1306C79.3091 63.6361 79.1074 63.1617 78.7484 62.8118C78.3894 62.4618 77.9023 62.2648 77.3942 62.264Z"
     fill="#4D9EE0"
     id="path3"
     style="fill:#ffffff;fill-opacity:1" />
  <path
     d="M99.0792 65.9941C99.4588 65.9947 99.83 65.8856 100.146 65.6807C100.462 65.4759 100.708 65.1844 100.853 64.8432C100.999 64.502 101.037 64.1265 100.963 63.7641C100.889 63.4018 100.707 63.0689 100.438 62.8077C100.17 62.5465 99.8279 62.3686 99.4556 62.2967C99.0833 62.2248 98.6974 62.262 98.3469 62.4036C97.9963 62.5452 97.6968 62.7849 97.4863 63.0923C97.2758 63.3997 97.1637 63.761 97.1643 64.1304C97.1643 64.3752 97.2138 64.6175 97.3101 64.8436C97.4063 65.0697 97.5474 65.2752 97.7252 65.4483C97.903 65.6213 98.1141 65.7586 98.3464 65.8523C98.5788 65.9459 98.8278 65.9941 99.0792 65.9941Z"
     fill="#4D9EE0"
     id="path4"
     style="fill:#ffffff;fill-opacity:1" />
  <path
     d="M77.3944 66.9717C77.0157 66.9717 76.6454 67.081 76.3305 67.2858C76.0156 67.4906 75.7702 67.7816 75.6253 68.1222C75.4803 68.4627 75.4424 68.8375 75.5163 69.199C75.5902 69.5605 75.7726 69.8926 76.0404 70.1533C76.3082 70.4139 76.6494 70.5914 77.0208 70.6633C77.3923 70.7352 77.7773 70.6983 78.1272 70.5573C78.4771 70.4162 78.7762 70.1773 78.9866 69.8708C79.197 69.5643 79.3093 69.204 79.3093 68.8354C79.3093 68.3411 79.1076 67.8671 78.7485 67.5175C78.3894 67.168 77.9023 66.9717 77.3944 66.9717Z"
     fill="#4D9EE0"
     id="path5"
     style="fill:#ffffff;fill-opacity:1" />
  <path
     d="M82.8139 66.9717C82.4351 66.9717 82.0649 67.081 81.75 67.2858C81.4351 67.4906 81.1896 67.7816 81.0447 68.1222C80.8998 68.4627 80.8618 68.8375 80.9357 69.199C81.0096 69.5605 81.192 69.8926 81.4598 70.1533C81.7276 70.4139 82.0688 70.5914 82.4403 70.6633C82.8117 70.7352 83.1968 70.6983 83.5467 70.5573C83.8966 70.4162 84.1956 70.1773 84.4061 69.8708C84.6165 69.5643 84.7288 69.204 84.7288 68.8354C84.7288 68.3411 84.527 67.8671 84.1679 67.5175C83.8088 67.168 83.3217 66.9717 82.8139 66.9717Z"
     fill="#4D9EE0"
     id="path6"
     style="fill:#ffffff;fill-opacity:1" />
  <path
     d="M93.6593 66.9717C93.2806 66.9717 92.9103 67.081 92.5954 67.2858C92.2805 67.4906 92.0351 67.7816 91.8902 68.1222C91.7452 68.4627 91.7073 68.8375 91.7812 69.199C91.8551 69.5605 92.0374 69.8926 92.3053 70.1533C92.5731 70.4139 92.9143 70.5914 93.2857 70.6633C93.6572 70.7352 94.0422 70.6983 94.3921 70.5573C94.742 70.4162 95.0411 70.1773 95.2515 69.8708C95.4619 69.5643 95.5742 69.204 95.5742 68.8354C95.5742 68.3411 95.3725 67.8671 95.0134 67.5175C94.6543 67.168 94.1672 66.9717 93.6593 66.9717Z"
     fill="#4D9EE0"
     id="path7"
     style="fill:#ffffff;fill-opacity:1" />
  <path
     d="M99.0792 66.9717C98.7005 66.9717 98.3303 67.081 98.0154 67.2858C97.7004 67.4906 97.455 67.7816 97.3101 68.1222C97.1651 68.4627 97.1272 68.8375 97.2011 69.199C97.275 69.5605 97.4574 69.8926 97.7252 70.1533C97.993 70.4139 98.3342 70.5914 98.7056 70.6633C99.0771 70.7352 99.4621 70.6983 99.812 70.5573C100.162 70.4162 100.461 70.1773 100.671 69.8708C100.882 69.5643 100.994 69.204 100.994 68.8354C100.994 68.3411 100.792 67.8671 100.433 67.5175C100.074 67.168 99.5871 66.9717 99.0792 66.9717Z"
     fill="#4D9EE0"
     id="path8"
     style="fill:#ffffff;fill-opacity:1" />
  <path
     d="M77.3942 71.7449C77.0146 71.7443 76.6434 71.8534 76.3276 72.0583C76.0117 72.2631 75.7655 72.5546 75.6199 72.8958C75.4744 73.237 75.4362 73.6126 75.5101 73.9749C75.584 74.3372 75.7667 74.6701 76.0351 74.9313C76.3035 75.1925 76.6455 75.3704 77.0178 75.4423C77.3901 75.5142 77.776 75.477 78.1265 75.3354C78.4771 75.1938 78.7766 74.9541 78.9871 74.6467C79.1976 74.3393 79.3097 73.978 79.3091 73.6086C79.3091 73.1143 79.1073 72.6403 78.7482 72.2907C78.3891 71.9412 77.902 71.7449 77.3942 71.7449Z"
     fill="#4D9EE0"
     id="path9"
     style="fill:#ffffff;fill-opacity:1" />
  <path
     d="M88.2367 71.7449C87.8571 71.7443 87.4859 71.8534 87.1701 72.0583C86.8543 72.2631 86.608 72.5546 86.4625 72.8958C86.3169 73.237 86.2787 73.6126 86.3526 73.9749C86.4265 74.3372 86.6093 74.6701 86.8776 74.9313C87.146 75.1925 87.488 75.3704 87.8603 75.4423C88.2326 75.5142 88.6185 75.477 88.9691 75.3354C89.3196 75.1938 89.6191 74.9541 89.8296 74.6467C90.0401 74.3393 90.1522 73.978 90.1516 73.6086C90.1516 73.3638 90.1021 73.1215 90.0059 72.8954C89.9096 72.6693 89.7686 72.4638 89.5908 72.2907C89.4129 72.1177 89.2018 71.9804 88.9695 71.8867C88.7372 71.7931 88.4882 71.7449 88.2367 71.7449Z"
     fill="#4D9EE0"
     id="path10"
     style="fill:#ffffff;fill-opacity:1" />
  <path
     d="M99.0792 71.7449C98.6997 71.7443 98.3285 71.8534 98.0126 72.0583C97.6968 72.2631 97.4505 72.5546 97.305 72.8958C97.1595 73.237 97.1212 73.6126 97.1952 73.9749C97.2691 74.3372 97.4518 74.6701 97.7202 74.9313C97.9886 75.1925 98.3306 75.3704 98.7029 75.4423C99.0752 75.5142 99.461 75.477 99.8116 75.3354C100.162 75.1938 100.462 74.9541 100.672 74.6467C100.883 74.3393 100.995 73.978 100.994 73.6086C100.994 73.1143 100.792 72.6403 100.433 72.2907C100.074 71.9412 99.5871 71.7449 99.0792 71.7449Z"
     fill="#4D9EE0"
     id="path11"
     style="fill:#ffffff;fill-opacity:1" />
  <path
     d="M77.3944 76.5752C77.0157 76.5752 76.6454 76.6845 76.3305 76.8893C76.0156 77.0941 75.7702 77.3852 75.6253 77.7257C75.4803 78.0663 75.4424 78.441 75.5163 78.8025C75.5902 79.164 75.7726 79.4961 76.0404 79.7568C76.3082 80.0174 76.6494 80.1949 77.0208 80.2668C77.3923 80.3388 77.7773 80.3018 78.1272 80.1608C78.4771 80.0197 78.7762 79.7808 78.9866 79.4744C79.197 79.1679 79.3093 78.8075 79.3093 78.4389C79.3093 77.9446 79.1076 77.4706 78.7485 77.1211C78.3894 76.7716 77.9023 76.5752 77.3944 76.5752Z"
     fill="#4D9EE0"
     id="path12"
     style="fill:#ffffff;fill-opacity:1" />
  <path
     d="M99.0792 76.5752C98.7005 76.5752 98.3303 76.6845 98.0154 76.8893C97.7004 77.0941 97.455 77.3852 97.3101 77.7257C97.1651 78.0663 97.1272 78.441 97.2011 78.8025C97.275 79.164 97.4574 79.4961 97.7252 79.7568C97.993 80.0174 98.3342 80.1949 98.7056 80.2668C99.0771 80.3388 99.4621 80.3018 99.812 80.1608C100.162 80.0197 100.461 79.7808 100.671 79.4744C100.882 79.1679 100.994 78.8075 100.994 78.4389C100.994 77.9446 100.792 77.4706 100.433 77.1211C100.074 76.7716 99.5871 76.5752 99.0792 76.5752Z"
     fill="#4D9EE0"
     id="path13"
     style="fill:#ffffff;fill-opacity:1" />
  <path
     d="M88.2221 60.3603C88.6008 60.3603 88.971 60.251 89.2859 60.0462C89.6008 59.8414 89.8463 59.5503 89.9912 59.2098C90.1362 58.8692 90.1741 58.4945 90.1002 58.1329C90.0263 57.7714 89.8439 57.4393 89.5761 57.1787C89.3083 56.918 88.9671 56.7405 88.5957 56.6686C88.2242 56.5967 87.8392 56.6336 87.4892 56.7747C87.1393 56.9157 86.8403 57.1546 86.6299 57.4611C86.4194 57.7676 86.3071 58.1279 86.3071 58.4965C86.3071 58.9908 86.5089 59.4649 86.868 59.8144C87.2271 60.1639 87.7142 60.3603 88.2221 60.3603Z"
     fill="#DBEFFF"
     id="path14"
     style="fill:#ffffff;fill-opacity:1" />
  <path
     d="M82.8139 65.9941C83.1934 65.9947 83.5646 65.8856 83.8805 65.6807C84.1963 65.4759 84.4426 65.1844 84.5881 64.8432C84.7336 64.502 84.7718 64.1265 84.6979 63.7641C84.624 63.4018 84.4413 63.0689 84.1729 62.8077C83.9045 62.5465 83.5625 62.3686 83.1902 62.2967C82.8179 62.2248 82.4321 62.262 82.0815 62.4036C81.7309 62.5452 81.4314 62.7849 81.2209 63.0923C81.0104 63.3997 80.8983 63.761 80.8989 64.1304C80.8989 64.3752 80.9485 64.6175 81.0447 64.8436C81.1409 65.0697 81.282 65.2752 81.4598 65.4483C81.6376 65.6213 81.8487 65.7586 82.081 65.8523C82.3134 65.9459 82.5624 65.9941 82.8139 65.9941Z"
     fill="#DBEFFF"
     id="path15"
     style="fill:#ffffff;fill-opacity:1" />
  <path
     d="M88.2221 65.9941C88.6016 65.9947 88.9728 65.8856 89.2887 65.6807C89.6045 65.4759 89.8508 65.1844 89.9963 64.8432C90.1418 64.502 90.18 64.1265 90.1061 63.7641C90.0322 63.4018 89.8495 63.0689 89.5811 62.8077C89.3127 62.5465 88.9707 62.3686 88.5984 62.2967C88.2261 62.2248 87.8403 62.262 87.4897 62.4036C87.1391 62.5452 86.8396 62.7849 86.6291 63.0923C86.4186 63.3997 86.3066 63.761 86.3071 64.1304C86.3071 64.3752 86.3567 64.6175 86.4529 64.8436C86.5491 65.0697 86.6902 65.2752 86.868 65.4483C87.0458 65.6213 87.2569 65.7586 87.4893 65.8523C87.7216 65.9459 87.9706 65.9941 88.2221 65.9941Z"
     fill="#DBEFFF"
     id="path16"
     style="fill:#ffffff;fill-opacity:1" />
  <path
     d="M93.6742 62.264C93.2948 62.2635 92.9237 62.3725 92.6079 62.5772C92.2921 62.782 92.0459 63.0733 91.9003 63.4143C91.7546 63.7554 91.7162 64.1308 91.7899 64.493C91.8636 64.8553 92.046 65.1881 92.3141 65.4495C92.5822 65.7108 92.9239 65.8889 93.296 65.9611C93.6682 66.0334 94.0539 65.9966 94.4045 65.8554C94.7551 65.7142 95.0548 65.4749 95.2657 65.1679C95.4766 64.8609 95.5891 64.4999 95.5891 64.1306C95.5895 63.8856 95.5403 63.643 95.4442 63.4165C95.3481 63.1901 95.2072 62.9843 95.0293 62.8109C94.8514 62.6376 94.6402 62.5 94.4077 62.4062C94.1752 62.3123 93.9259 62.264 93.6742 62.264Z"
     fill="#DBEFFF"
     id="path17"
     style="fill:#ffffff;fill-opacity:1" />
  <path
     d="M88.2367 66.9717C87.858 66.9717 87.4877 67.081 87.1728 67.2858C86.8579 67.4906 86.6125 67.7816 86.4675 68.1222C86.3226 68.4627 86.2847 68.8375 86.3586 69.199C86.4325 69.5605 86.6148 69.8926 86.8826 70.1533C87.1505 70.4139 87.4917 70.5914 87.8631 70.6633C88.2346 70.7352 88.6196 70.6983 88.9695 70.5573C89.3194 70.4162 89.6185 70.1773 89.8289 69.8708C90.0393 69.5643 90.1516 69.204 90.1516 68.8354C90.1516 68.5906 90.1021 68.3483 90.0059 68.1222C89.9096 67.8961 89.7686 67.6906 89.5908 67.5175C89.413 67.3445 89.2018 67.2072 88.9695 67.1135C88.7372 67.0199 88.4882 66.9717 88.2367 66.9717Z"
     fill="#DBEFFF"
     id="path18"
     style="fill:#ffffff;fill-opacity:1" />
  <path
     d="M82.8141 71.7449C82.4345 71.7443 82.0633 71.8534 81.7475 72.0583C81.4316 72.2631 81.1854 72.5546 81.0399 72.8958C80.8943 73.237 80.8561 73.6126 80.93 73.9749C81.0039 74.3372 81.1866 74.6701 81.455 74.9313C81.7234 75.1925 82.0654 75.3704 82.4377 75.4423C82.81 75.5142 83.1959 75.477 83.5465 75.3354C83.897 75.1938 84.1965 74.9541 84.407 74.6467C84.6175 74.3393 84.7296 73.978 84.729 73.6086C84.729 73.1143 84.5273 72.6403 84.1681 72.2907C83.809 71.9412 83.322 71.7449 82.8141 71.7449Z"
     fill="#DBEFFF"
     id="path19"
     style="fill:#ffffff;fill-opacity:1" />
  <path
     d="M93.6596 71.7449C93.28 71.7443 92.9088 71.8534 92.593 72.0583C92.2771 72.2631 92.0308 72.5546 91.8853 72.8958C91.7398 73.237 91.7016 73.6126 91.7755 73.9749C91.8494 74.3372 92.0321 74.6701 92.3005 74.9313C92.5689 75.1925 92.9109 75.3704 93.2832 75.4423C93.6555 75.5142 94.0413 75.477 94.3919 75.3354C94.7425 75.1938 95.042 74.9541 95.2525 74.6467C95.463 74.3393 95.5751 73.978 95.5745 73.6086C95.5745 73.1143 95.3727 72.6403 95.0136 72.2907C94.6545 71.9412 94.1674 71.7449 93.6596 71.7449Z"
     fill="#DBEFFF"
     id="path20"
     style="fill:#ffffff;fill-opacity:1" />
  <path
     d="M82.8139 76.5752C82.4351 76.5752 82.0649 76.6845 81.75 76.8893C81.4351 77.0941 81.1896 77.3852 81.0447 77.7257C80.8998 78.0663 80.8618 78.441 80.9357 78.8025C81.0096 79.164 81.192 79.4961 81.4598 79.7568C81.7276 80.0174 82.0688 80.1949 82.4403 80.2668C82.8117 80.3388 83.1968 80.3018 83.5467 80.1608C83.8966 80.0197 84.1956 79.7808 84.4061 79.4744C84.6165 79.1679 84.7288 78.8075 84.7288 78.4389C84.7288 77.9446 84.527 77.4706 84.1679 77.1211C83.8088 76.7716 83.3217 76.5752 82.8139 76.5752Z"
     fill="#DBEFFF"
     id="path21"
     style="fill:#ffffff;fill-opacity:1" />
  <path
     d="M88.2367 76.5752C87.858 76.5752 87.4877 76.6845 87.1728 76.8893C86.8579 77.0941 86.6125 77.3852 86.4675 77.7257C86.3226 78.0663 86.2847 78.441 86.3586 78.8025C86.4325 79.164 86.6148 79.4961 86.8826 79.7568C87.1505 80.0174 87.4917 80.1949 87.8631 80.2668C88.2346 80.3388 88.6196 80.3018 88.9695 80.1608C89.3194 80.0197 89.6185 79.7808 89.8289 79.4744C90.0393 79.1679 90.1516 78.8075 90.1516 78.4389C90.1516 78.1942 90.1021 77.9518 90.0059 77.7257C89.9096 77.4996 89.7686 77.2941 89.5908 77.1211C89.413 76.948 89.2018 76.8107 88.9695 76.7171C88.7372 76.6234 88.4882 76.5752 88.2367 76.5752Z"
     fill="#DBEFFF"
     id="path22"
     style="fill:#ffffff;fill-opacity:1" />
  <path
     d="M93.6593 76.5752C93.2806 76.5752 92.9103 76.6845 92.5954 76.8893C92.2805 77.0941 92.0351 77.3852 91.8902 77.7257C91.7452 78.0663 91.7073 78.441 91.7812 78.8025C91.8551 79.164 92.0374 79.4961 92.3053 79.7568C92.5731 80.0174 92.9143 80.1949 93.2857 80.2668C93.6572 80.3388 94.0422 80.3018 94.3921 80.1608C94.742 80.0197 95.0411 79.7808 95.2515 79.4744C95.4619 79.1679 95.5742 78.8075 95.5742 78.4389C95.5742 77.9446 95.3725 77.4706 95.0134 77.1211C94.6543 76.7716 94.1672 76.5752 93.6593 76.5752Z"
     fill="#DBEFFF"
     id="path23"
     style="fill:#ffffff;fill-opacity:1" />
  <path
     d="M88.2221 81.2745C87.8433 81.2745 87.4731 81.3838 87.1582 81.5886C86.8433 81.7934 86.5978 82.0845 86.4529 82.425C86.308 82.7656 86.27 83.1403 86.3439 83.5019C86.4178 83.8634 86.6002 84.1955 86.868 84.4561C87.1358 84.7168 87.477 84.8943 87.8485 84.9662C88.2199 85.0381 88.605 85.0012 88.9549 84.8601C89.3048 84.7191 89.6038 84.4802 89.8143 84.1737C90.0247 83.8672 90.137 83.5069 90.137 83.1383C90.137 82.8935 90.0875 82.6512 89.9912 82.425C89.895 82.1989 89.7539 81.9935 89.5761 81.8204C89.3983 81.6473 89.1872 81.5101 88.9549 81.4164C88.7225 81.3227 88.4735 81.2745 88.2221 81.2745Z"
     fill="#DBEFFF"
     id="path24"
     style="fill:#ffffff;fill-opacity:1" />
  <path
     d="M90.2864 95.235C91.6997 95.235 92.8182 95.52 93.6419 96.0899C94.4657 96.6599 94.8766 97.5309 94.8746 98.7031C94.9057 99.3878 94.7247 100.066 94.3551 100.649C93.9854 101.232 93.4442 101.694 92.8016 101.975C92.0884 102.286 91.3168 102.45 90.5353 102.456L90.1898 101.282C91.131 101.278 92.065 101.442 92.9451 101.767C93.6851 102.032 94.3404 102.482 94.8454 103.072C95.311 103.637 95.5587 104.342 95.5452 105.067C95.5651 105.698 95.4306 106.325 95.1528 106.896C94.9035 107.38 94.5391 107.799 94.0899 108.119C93.636 108.439 93.1245 108.674 92.582 108.811C92.0085 108.957 91.418 109.03 90.8252 109.028H86.4829V95.235H90.2864ZM90.6319 101.111C91.3054 101.111 91.8031 100.92 92.1135 100.541C92.4252 100.156 92.5907 99.6778 92.582 99.1876C92.6057 98.9279 92.5649 98.6665 92.463 98.4255C92.3611 98.1844 92.201 97.9708 91.9964 97.8026C91.5251 97.4901 90.9613 97.3369 90.3918 97.3666H88.7287V101.111H90.6319ZM90.7256 106.987C91.1617 106.993 91.5956 106.926 92.0081 106.788C92.369 106.669 92.6871 106.451 92.9246 106.161C93.1619 105.854 93.2838 105.476 93.2701 105.092C93.2828 104.889 93.2539 104.685 93.1851 104.493C93.1162 104.301 93.0087 104.124 92.8689 103.972C92.5873 103.699 92.237 103.503 91.8529 103.402C91.4368 103.287 91.006 103.23 90.5734 103.231H88.7199V106.984L90.7256 106.987Z"
     fill="#7C07A9"
     id="path25"
     style="fill:#ffffff;fill-opacity:1" />
  <path
     d="M98.719 95.235H100.956V109.033H98.719V95.235Z"
     fill="#7C07A9"
     id="path26"
     style="fill:#ffffff;fill-opacity:1" />
  <path
     d="M12.1402 107.763C11.9073 107.976 11.639 108.149 11.3467 108.276C10.9668 108.452 10.5756 108.604 10.1755 108.732C9.73448 108.87 9.28453 108.981 8.82859 109.062C8.39998 109.141 7.96482 109.182 7.52855 109.185C6.49484 109.195 5.46815 109.018 4.50097 108.663C3.64295 108.344 2.86011 107.859 2.19954 107.238C1.5626 106.636 1.06368 105.91 0.735528 105.107C0.38545 104.257 0.210353 103.349 0.220195 102.434C0.203628 101.349 0.402468 100.271 0.8058 99.2591C1.15655 98.3901 1.69128 97.6026 2.37522 96.948C3.02622 96.3233 3.80413 95.838 4.65908 95.5231C5.53005 95.2069 6.45258 95.0466 7.38215 95.05C8.1725 95.0431 8.96027 95.139 9.72457 95.335C10.3697 95.4943 10.9901 95.7368 11.5692 96.056L10.8431 98.1021C10.5443 97.9384 10.2307 97.802 9.9061 97.6946C9.52433 97.5617 9.13282 97.4569 8.73489 97.3811C8.38214 97.3105 8.02334 97.2723 7.66324 97.2671C6.93237 97.2557 6.20506 97.3685 5.51407 97.6005C4.90803 97.8054 4.35608 98.1382 3.8978 98.5751C3.44368 99.0176 3.09485 99.5517 2.87591 100.14C2.62897 100.811 2.50894 101.521 2.52162 102.234C2.51233 102.896 2.63875 103.553 2.89348 104.166C3.1312 104.73 3.48607 105.241 3.93586 105.665C4.39603 106.091 4.944 106.416 5.54335 106.62C6.20124 106.847 6.89498 106.96 7.59296 106.953C8.01633 106.953 8.43878 106.915 8.85494 106.839C9.22305 106.776 9.57808 106.655 9.9061 106.48V104.201H7.28552V102.109H12.1431L12.1402 107.763Z"
     fill="#50026E"
     id="path27"
     style="fill:#ffffff;fill-opacity:1" />
  <path
     d="M15.6948 95.235H17.9318V106.919H24.7746V109.042H15.6978L15.6948 95.235Z"
     fill="#50026E"
     id="path28"
     style="fill:#ffffff;fill-opacity:1" />
  <path
     d="M26.4758 109.034L32.6247 94.6682H32.7594L38.9082 109.034H36.3521L32.0391 98.1192L33.6261 97.0591L28.6484 109.028L26.4758 109.034ZM30.3379 103.904H35.0959L35.8631 105.799H29.6674L30.3379 103.904Z"
     fill="#50026E"
     id="path29"
     style="fill:#ffffff;fill-opacity:1" />
  <path
     d="M45.3996 95.2354C46.1123 95.2246 46.8223 95.3208 47.5049 95.5204C48.1016 95.6926 48.655 95.9838 49.1299 96.3753C49.5782 96.7592 49.9332 97.2352 50.1694 97.7688C50.4285 98.3653 50.5561 99.0079 50.5442 99.6554C50.5416 100.208 50.4578 100.756 50.2953 101.285C50.1311 101.824 49.854 102.324 49.4813 102.753C49.0763 103.211 48.5697 103.574 47.9997 103.813C47.2801 104.106 46.5042 104.245 45.7246 104.221H43.7189V109.034H41.4819V95.2354H45.3996ZM45.7217 102.109C46.1489 102.123 46.5738 102.041 46.9632 101.87C47.267 101.734 47.533 101.53 47.7391 101.274C47.9179 101.043 48.0536 100.784 48.1403 100.507C48.2187 100.258 48.2601 99.9989 48.2632 99.738C48.2594 99.4853 48.221 99.2342 48.1491 98.9914C48.0689 98.7107 47.9358 98.4469 47.7567 98.2134C47.5578 97.9535 47.2991 97.7427 47.0013 97.5979C46.627 97.4207 46.2138 97.3355 45.7978 97.3499H43.7482V102.109H45.7217ZM48.1286 103.414L51.6861 109.025H49.0889L45.4582 103.471L48.1286 103.414Z"
     fill="#50026E"
     id="path30"
     style="fill:#ffffff;fill-opacity:1" />
  <path
     d="M56.4881 104.069C56.4843 104.597 56.6335 105.116 56.9186 105.565C57.1971 106.013 57.588 106.385 58.0546 106.645C58.5376 106.914 59.0855 107.051 59.6416 107.044C60.2165 107.053 60.7836 106.915 61.2872 106.645C61.7609 106.39 62.1569 106.017 62.435 105.565C62.7125 105.113 62.8574 104.596 62.8537 104.069V95.235H65.0468V104.126C65.0687 105.033 64.8297 105.928 64.3568 106.709C63.8839 107.491 63.1959 108.128 62.3705 108.549C61.5265 108.967 60.5929 109.184 59.646 109.184C58.6991 109.184 57.7656 108.967 56.9215 108.549C56.1198 108.139 55.4492 107.523 54.9831 106.768C54.4944 105.97 54.2458 105.055 54.2658 104.126V95.235H56.4823L56.4881 104.069Z"
     fill="#50026E"
     id="path31"
     style="fill:#ffffff;fill-opacity:1" />
  <path
     d="M76.1205 98.0424C75.6098 97.784 75.0792 97.5648 74.5335 97.3869C74.018 97.208 73.4761 97.1117 72.9289 97.102C72.3476 97.0711 71.7724 97.2307 71.2951 97.5551C71.099 97.7014 70.9418 97.8914 70.8369 98.1091C70.7319 98.3268 70.6822 98.5658 70.6919 98.8061C70.6896 99.1779 70.8367 99.5358 71.1018 99.8035C71.4108 100.11 71.7737 100.36 72.1735 100.542C72.6127 100.749 73.0744 100.947 73.5585 101.137C73.9866 101.294 74.4051 101.475 74.8117 101.679C75.219 101.883 75.5953 102.141 75.9302 102.445C76.2715 102.766 76.5381 103.155 76.7119 103.585C76.921 104.114 77.0206 104.677 77.0047 105.244C77.0158 105.944 76.8295 106.634 76.466 107.238C76.0898 107.849 75.5436 108.343 74.8907 108.663C74.1123 109.037 73.2517 109.219 72.3843 109.193C71.8088 109.195 71.2351 109.131 70.6743 109.005C70.1332 108.881 69.6056 108.707 69.0991 108.484C68.6187 108.272 68.1573 108.021 67.72 107.734L68.7155 106.024C69.0435 106.266 69.3957 106.475 69.7667 106.649C70.1588 106.838 70.5686 106.991 70.9906 107.105C71.3761 107.214 71.775 107.271 72.1764 107.276C72.5756 107.274 72.9717 107.207 73.3476 107.076C73.7248 106.952 74.0613 106.733 74.3227 106.441C74.5958 106.116 74.7356 105.705 74.715 105.286C74.7251 104.924 74.6073 104.569 74.3812 104.28C74.1385 103.985 73.8404 103.738 73.5028 103.551C73.1171 103.331 72.7148 103.141 72.2994 102.981C71.8661 102.816 71.4259 102.632 70.9789 102.431C70.5333 102.23 70.1136 101.978 69.7286 101.681C69.3393 101.386 69.0172 101.016 68.7828 100.593C68.5244 100.101 68.3985 99.5525 68.4168 98.9999C68.3989 98.3072 68.5848 97.624 68.9527 97.0307C69.3169 96.4681 69.8282 96.0098 70.4342 95.7028C71.1124 95.3636 71.8621 95.1822 72.6244 95.1727C73.476 95.1539 74.3248 95.2724 75.1367 95.5232C75.7835 95.7377 76.4025 96.0246 76.9813 96.3781L76.1205 98.0424Z"
     fill="#50026E"
     id="path32"
     style="fill:#ffffff;fill-opacity:1" />
</svg>
