<?xml version="1.0" encoding="UTF-8" standalone="no"?>
<svg
   viewBox="52 42 88 66"
   version="1.1"
   id="svg5"
   sodipodi:docname="gmail.svg"
   inkscape:version="1.4 (e7c3feb100, 2024-10-09)"
   xmlns:inkscape="http://www.inkscape.org/namespaces/inkscape"
   xmlns:sodipodi="http://sodipodi.sourceforge.net/DTD/sodipodi-0.dtd"
   xmlns="http://www.w3.org/2000/svg"
   xmlns:svg="http://www.w3.org/2000/svg">
  <defs
     id="defs5" />
  <sodipodi:namedview
     id="namedview5"
     pagecolor="#000000"
     bordercolor="#000000"
     borderopacity="0.25"
     inkscape:showpageshadow="2"
     inkscape:pageopacity="0.0"
     inkscape:pagecheckerboard="0"
     inkscape:deskcolor="#d1d1d1"
     inkscape:zoom="8.9848485"
     inkscape:cx="43.962901"
     inkscape:cy="33"
     inkscape:window-width="1536"
     inkscape:window-height="802"
     inkscape:window-x="0"
     inkscape:window-y="0"
     inkscape:window-maximized="1"
     inkscape:current-layer="svg5" />
  <path
     fill="#4285f4"
     d="M58 108h14V74L52 59v43c0 3.32 2.69 6 6 6"
     id="path1"
     style="fill:#ffffff;fill-opacity:1" />
  <path
     fill="#34a853"
     d="M120 108h14c3.32 0 6-2.69 6-6V59l-20 15"
     id="path2"
     style="fill:#ffffff;fill-opacity:1" />
  <path
     fill="#fbbc04"
     d="M120 48v26l20-15v-8c0-7.42-8.47-11.65-14.4-7.2"
     id="path3"
     style="fill:#ffffff;fill-opacity:1" />
  <path
     fill="#ea4335"
     d="M72 74V48l24 18 24-18v26L96 92"
     id="path4"
     style="fill:#ffffff;fill-opacity:1" />
  <path
     fill="#c5221f"
     d="M52 51v8l20 15V48l-5.6-4.2c-5.94-4.45-14.4-.22-14.4 7.2"
     id="path5"
     style="fill:#ffffff;fill-opacity:1" />
</svg>
