<?xml version="1.0" encoding="UTF-8" standalone="no"?>
<svg
   viewBox="0 0 87.3 78"
   version="1.1"
   id="svg6"
   sodipodi:docname="google_drive.svg"
   inkscape:version="1.4 (e7c3feb100, 2024-10-09)"
   xmlns:inkscape="http://www.inkscape.org/namespaces/inkscape"
   xmlns:sodipodi="http://sodipodi.sourceforge.net/DTD/sodipodi-0.dtd"
   xmlns="http://www.w3.org/2000/svg"
   xmlns:svg="http://www.w3.org/2000/svg">
  <defs
     id="defs6" />
  <sodipodi:namedview
     id="namedview6"
     pagecolor="#000000"
     bordercolor="#000000"
     borderopacity="0.25"
     inkscape:showpageshadow="2"
     inkscape:pageopacity="0.0"
     inkscape:pagecheckerboard="0"
     inkscape:deskcolor="#d1d1d1"
     inkscape:zoom="7.6025641"
     inkscape:cx="43.669477"
     inkscape:cy="39"
     inkscape:window-width="1536"
     inkscape:window-height="802"
     inkscape:window-x="0"
     inkscape:window-y="0"
     inkscape:window-maximized="1"
     inkscape:current-layer="svg6" />
  <path
     d="m6.6 66.85 3.85 6.65c.8 1.4 1.95 2.5 3.3 3.3l13.75-23.8h-27.5c0 1.55.4 3.1 1.2 4.5z"
     fill="#0066da"
     id="path1"
     style="fill:#ffffff;fill-opacity:1" />
  <path
     d="m43.65 25-13.75-23.8c-1.35.8-2.5 1.9-3.3 3.3l-25.4 44a9.06 9.06 0 0 0 -1.2 4.5h27.5z"
     fill="#00ac47"
     id="path2"
     style="fill:#ffffff;fill-opacity:1" />
  <path
     d="m73.55 76.8c1.35-.8 2.5-1.9 3.3-3.3l1.6-2.75 7.65-13.25c.8-1.4 1.2-2.95 1.2-4.5h-27.502l5.852 11.5z"
     fill="#ea4335"
     id="path3"
     style="fill:#ffffff;fill-opacity:1" />
  <path
     d="m43.65 25 13.75-23.8c-1.35-.8-2.9-1.2-4.5-1.2h-18.5c-1.6 0-3.15.45-4.5 1.2z"
     fill="#00832d"
     id="path4"
     style="fill:#ffffff;fill-opacity:1" />
  <path
     d="m59.8 53h-32.3l-13.75 23.8c1.35.8 2.9 1.2 4.5 1.2h50.8c1.6 0 3.15-.45 4.5-1.2z"
     fill="#2684fc"
     id="path5"
     style="fill:#ffffff;fill-opacity:1" />
  <path
     d="m73.4 26.5-12.7-22c-.8-1.4-1.95-2.5-3.3-3.3l-13.75 23.8 16.15 28h27.45c0-1.55-.4-3.1-1.2-4.5z"
     fill="#ffba00"
     id="path6"
     style="fill:#ffffff;fill-opacity:1" />
</svg>
