<?xml version="1.0" encoding="UTF-8" standalone="no"?>
<svg
   version="1.1"
   x="0px"
   y="0px"
   viewBox="0 0 400 102"
   style="enable-background:new 0 0 400 102;"
   xml:space="preserve"
   id="svg11"
   sodipodi:docname="stepik.svg"
   inkscape:version="1.4 (e7c3feb100, 2024-10-09)"
   xmlns:inkscape="http://www.inkscape.org/namespaces/inkscape"
   xmlns:sodipodi="http://sodipodi.sourceforge.net/DTD/sodipodi-0.dtd"
   xmlns="http://www.w3.org/2000/svg"
   xmlns:svg="http://www.w3.org/2000/svg"><defs
   id="defs11" /><sodipodi:namedview
   id="namedview11"
   pagecolor="#000000"
   bordercolor="#000000"
   borderopacity="0.25"
   inkscape:showpageshadow="2"
   inkscape:pageopacity="0.0"
   inkscape:pagecheckerboard="0"
   inkscape:deskcolor="#d1d1d1"
   inkscape:zoom="3.4775"
   inkscape:cx="50.323508"
   inkscape:cy="51.042416"
   inkscape:window-width="1536"
   inkscape:window-height="802"
   inkscape:window-x="0"
   inkscape:window-y="0"
   inkscape:window-maximized="1"
   inkscape:current-layer="g11" />
<g
   id="g11">
	<g
   id="g8"
   style="fill:#ffffff;fill-opacity:1">
		<path
   fill="#ffffff"
   d="M338.3,75.6c-2,0-3.7-1.7-3.7-3.7V26.4c0-2,1.6-3.7,3.7-3.7c2,0,3.7,1.6,3.7,3.7v45.5    C342,73.9,340.3,75.6,338.3,75.6z"
   id="path1"
   style="fill:#ffffff;fill-opacity:1" />
		<path
   fill="#ffffff"
   d="M212.4,65.1c-1.5-1.2-3.6-1-4.9,0.5c-3.3,4.1-11.5,3.1-13.6,2.2c-3.1-1.2-4.6-3.8-4.6-7.6V35.3h16.3    c2,0,3.7-1.6,3.7-3.7c0-2-1.6-3.7-3.7-3.7h-16.3V9.3c0-1.9-1.5-3.5-3.5-3.5c-1.9,0-3.4,1.5-3.4,3.5v50.9c0,6.6,3.2,11.7,8.9,14    c1.8,0.7,4.6,1.3,7.7,1.3c4.9,0,10.5-1.4,13.9-5.6C214.1,68.4,213.9,66.3,212.4,65.1z"
   id="path2"
   style="fill:#ffffff;fill-opacity:1" />
		<path
   fill="#ffffff"
   d="M155.8,75.8c-1.1,0-2.3-0.1-3.4-0.2c-12-1.5-19.2-7.1-19.2-14.8c0-2,1.6-3.7,3.7-3.7c2,0,3.7,1.7,3.7,3.7    c0,3.6,5,6.5,12.8,7.5c7.8,1,13.3-2.9,14.1-5.9c0.5-1.8,0.3-3.4-0.5-4.7c-0.9-1.4-2.4-2.3-4.7-2.8c-15.7-2.8-26.1-5.4-27.6-15.3    c-0.5-3.6,0.5-7.2,2.9-10c3.4-4,9.3-6.3,16.2-6.3c12.6,0,20.8,5.6,20.8,14.4c0,2-1.7,3.7-3.7,3.7c-2,0-3.7-1.7-3.7-3.7    c0-5.2-7.2-7-13.4-7c-4.6,0-8.6,1.4-10.6,3.7c-1,1.2-1.5,2.6-1.2,4.1c0.6,3.7,3.9,6,21.7,9.1l0.1,0c5.4,1.1,8.2,4,9.5,6.1    c1.9,3,2.4,6.7,1.4,10.5C172.9,70.3,165.7,75.8,155.8,75.8z"
   id="path3"
   style="fill:#ffffff;fill-opacity:1" />
		<path
   fill="#ffffff"
   d="M240.6,75.8c-14.5,0-26.3-11.8-26.3-26.2c0-14.5,11.8-26.2,26.3-26.2c13.2,0,24.5,9.9,26.1,23    c0.2,1.7-0.7,3.1-1.3,3.8c-0.9,1-2.1,1.6-3.3,1.6h-40.3c1,9.4,9.1,16.8,18.8,16.8c6.5,0,13.1-3.4,15.9-8.1c1-1.8,3.3-2.3,5-1.3    s2.4,3.3,1.3,5C258.8,71,249.8,75.8,240.6,75.8z M222.4,44.3h36.4c-2.3-7.9-9.7-13.6-18.2-13.6C232,30.7,224.7,36.4,222.4,44.3z"
   id="path4"
   style="fill:#ffffff;fill-opacity:1" />
		<path
   fill="#ffffff"
   d="M299.9,23.3c-7.4,0-14.1,3.1-18.9,8v-4.4c0-2-1.7-3.7-3.7-3.7c-2,0-3.7,1.6-3.7,3.7V90c0,2,1.6,3.7,3.7,3.7    c2,0,3.7-1.7,3.7-3.7V67.7c4.8,5,11.5,8,18.9,8c14.5,0,26.2-11.8,26.2-26.2C326.1,35.1,314.4,23.3,299.9,23.3z M299.9,68.4    c-10.4,0-18.9-8.5-18.9-18.9c0-10.4,8.5-18.9,18.9-18.9c10.4,0,18.9,8.5,18.9,18.9C318.8,59.9,310.3,68.4,299.9,68.4z"
   id="path5"
   style="fill:#ffffff;fill-opacity:1" />
		<path
   fill="#ffffff"
   d="M390.8,75.4c-3.6,0-7.2-1.6-10.5-4.7c-2.5-2.4-18.5-18.5-19.1-19.2c-0.7-0.7-1.1-1.6-1.1-2.6    c0-1,0.4-1.9,1.1-2.6l22-21.5c1.5-1.4,3.8-1.4,5.2,0.1c1.4,1.4,1.4,3.8-0.1,5.2L369,48.9c4.7,4.8,14.5,14.6,16.3,16.4    c2,1.9,3.9,2.8,5.7,2.7c0.5,0,1.7,0,2.7,0c2,0,3.7,1.7,3.7,3.7s-1.7,3.6-3.7,3.7c-1,0-2,0-2.5,0C391.1,75.4,390.9,75.4,390.8,75.4    z"
   id="path6"
   style="fill:#ffffff;fill-opacity:1" />
		<path
   fill="#ffffff"
   d="M355.2,75.5c-2,0-3.7-1.6-3.7-3.7V9.2c0-2,1.7-3.7,3.7-3.7c2,0,3.7,1.6,3.7,3.7v62.6    C358.9,73.9,357.2,75.5,355.2,75.5z"
   id="path7"
   style="fill:#ffffff;fill-opacity:1" />
		<path
   fill="#ffffff"
   d="M338.4,15.2c2.6,0,4.7-2.1,4.7-4.7c0-2.6-2.1-4.7-4.7-4.7c-2.6,0-4.7,2.1-4.7,4.7    C333.7,13.1,335.8,15.2,338.4,15.2z"
   id="path8"
   style="fill:#ffffff;fill-opacity:1" />
	</g>
	<g
   id="g10">
		<path
   id="path9"
   d="M 52.599609 1 C 43.599609 1 35.200391 4.5007812 28.900391 10.800781 L 12.5 27.300781 C 6.1 33.600781 2.5996094 42 2.5996094 51 C 2.5996094 60 6.1003906 68.399219 12.400391 74.699219 L 28.800781 91.099609 C 35.100781 97.399609 43.6 100.90039 52.5 100.90039 C 61.2 100.90039 69.500781 97.6 75.800781 91.5 L 92.599609 74.699219 C 98.899609 68.399219 102.40039 59.9 102.40039 51 C 102.60039 42 99.200781 33.600781 92.800781 27.300781 L 76.400391 10.800781 C 70.000391 4.5007812 61.599609 1 52.599609 1 z M 52.599609 17.199219 C 57.399609 17.199219 61.700391 19.100781 64.900391 22.300781 L 56.800781 30.400391 C 55.700781 29.300391 54.299609 28.699219 52.599609 28.699219 C 50.899609 28.699219 49.500391 29.400391 48.400391 30.400391 L 32 46.800781 C 30.9 47.900781 30.300781 49.3 30.300781 51 C 30.300781 52.6 31 54.099219 32 55.199219 C 33.1 56.299219 34.499219 56.900391 36.199219 56.900391 C 37.799219 56.900391 39.300391 56.199219 40.400391 55.199219 L 56.800781 38.800781 C 59.900781 35.700781 64.299609 33.699219 69.099609 33.699219 C 73.899609 33.699219 78.200391 35.600781 81.400391 38.800781 C 84.500391 41.900781 86.5 46.299609 86.5 51.099609 C 86.5 55.899609 84.600391 60.200391 81.400391 63.400391 L 64.699219 79.900391 C 61.599219 82.900391 57.299219 84.800781 52.699219 84.800781 C 47.899219 84.800781 43.600391 82.899219 40.400391 79.699219 L 48.5 71.599609 C 49.6 72.699609 50.999219 73.300781 52.699219 73.300781 C 54.299219 73.300781 55.800391 72.599609 56.900391 71.599609 L 73.300781 55.199219 C 74.400781 54.099219 75 52.7 75 51 C 75 49.4 74.300781 47.900781 73.300781 46.800781 C 72.200781 45.700781 70.799609 45.099609 69.099609 45.099609 C 67.399609 45.099609 66.000391 45.800781 64.900391 46.800781 L 48.5 63.300781 C 45.4 66.400781 40.999219 68.400391 36.199219 68.400391 C 31.399219 68.400391 27.100391 66.400781 23.900391 63.300781 C 20.800391 60.200781 18.800781 55.8 18.800781 51 C 18.800781 46.2 20.700391 41.899219 23.900391 38.699219 L 40.300781 22.300781 C 43.400781 19.200781 47.799609 17.199219 52.599609 17.199219 z "
   style="fill:#ffffff;fill-opacity:1" />
		
	</g>
</g>
</svg>
