<?xml version="1.0" encoding="UTF-8" standalone="no"?>
<svg
   version="1.1"
   x="0px"
   y="0px"
   viewBox="0 0 99.809128 99.900391"
   xml:space="preserve"
   id="svg11"
   sodipodi:docname="stepik_icon.svg"
   inkscape:version="1.4 (e7c3feb100, 2024-10-09)"
   width="99.809128"
   height="99.900391"
   xmlns:inkscape="http://www.inkscape.org/namespaces/inkscape"
   xmlns:sodipodi="http://sodipodi.sourceforge.net/DTD/sodipodi-0.dtd"
   xmlns="http://www.w3.org/2000/svg"
   xmlns:svg="http://www.w3.org/2000/svg"><defs
   id="defs11" /><sodipodi:namedview
   id="namedview11"
   pagecolor="#000000"
   bordercolor="#000000"
   borderopacity="0.25"
   inkscape:showpageshadow="2"
   inkscape:pageopacity="0.0"
   inkscape:pagecheckerboard="0"
   inkscape:deskcolor="#d1d1d1"
   inkscape:zoom="3.4775"
   inkscape:cx="47.735442"
   inkscape:cy="50.179727"
   inkscape:window-width="1536"
   inkscape:window-height="802"
   inkscape:window-x="0"
   inkscape:window-y="0"
   inkscape:window-maximized="1"
   inkscape:current-layer="g11" />
<g
   id="g11"
   transform="translate(-2.5996094,-1)">
	
	<g
   id="g10">
		<path
   id="path9"
   d="m 52.599609,1 c -9,0 -17.399218,3.5007812 -23.699218,9.800781 L 12.5,27.300781 C 6.1,33.600781 2.5996094,42 2.5996094,51 c 0,9 3.5007812,17.399219 9.8007816,23.699219 l 16.40039,16.40039 c 6.3,6.3 14.799219,9.800781 23.699219,9.800781 8.7,0 17.000781,-3.30039 23.300781,-9.40039 L 92.599609,74.699219 c 6.3,-6.3 9.800781,-14.799219 9.800781,-23.699219 0.2,-9 -3.199609,-17.399219 -9.599609,-23.699219 l -16.40039,-16.5 C 70.000391,4.5007812 61.599609,1 52.599609,1 Z m 0,16.199219 c 4.8,0 9.100782,1.901562 12.300782,5.101562 l -8.09961,8.09961 c -1.1,-1.1 -2.501172,-1.701172 -4.201172,-1.701172 -1.7,0 -3.099218,0.701172 -4.199218,1.701172 L 32,46.800781 C 30.9,47.900781 30.300781,49.3 30.300781,51 30.300781,52.6 31,54.099219 32,55.199219 c 1.1,1.1 2.499219,1.701172 4.199219,1.701172 1.6,0 3.101172,-0.701172 4.201172,-1.701172 l 16.40039,-16.398438 c 3.1,-3.1 7.498828,-5.101562 12.298828,-5.101562 4.8,0 9.100782,1.901562 12.300782,5.101562 3.1,3.1 5.099609,7.498828 5.099609,12.298828 0,4.8 -1.899609,9.100782 -5.099609,12.300782 l -16.701172,16.5 c -3.1,3 -7.4,4.90039 -12,4.90039 -4.8,0 -9.098828,-1.901562 -12.298828,-5.101562 L 48.5,71.599609 c 1.1,1.1 2.499219,1.701172 4.199219,1.701172 1.6,0 3.101172,-0.701172 4.201172,-1.701172 l 16.40039,-16.40039 C 74.400781,54.099219 75,52.7 75,51 c 0,-1.6 -0.699219,-3.099219 -1.699219,-4.199219 -1.1,-1.1 -2.501172,-1.701172 -4.201172,-1.701172 -1.7,0 -3.099218,0.701172 -4.199218,1.701172 L 48.5,63.300781 c -3.1,3.1 -7.500781,5.09961 -12.300781,5.09961 -4.8,0 -9.098828,-1.99961 -12.298828,-5.09961 -3.1,-3.1 -5.09961,-7.500781 -5.09961,-12.300781 0,-4.8 1.89961,-9.100781 5.09961,-12.300781 l 16.40039,-16.398438 c 3.1,-3.1 7.498828,-5.101562 12.298828,-5.101562 z"
   style="fill:#ffffff;fill-opacity:1" />
		
	</g>
</g>
</svg>
