<?xml version="1.0" encoding="UTF-8" standalone="no"?>
<!-- Generator: Adobe Illustrator 22.1.0, SVG Export Plug-In . SVG Version: 6.00 Build 0)  -->

<svg
   version="1.1"
   id="Layer_1"
   x="0px"
   y="0px"
   viewBox="0 0 250.89999 33.5"
   xml:space="preserve"
   sodipodi:docname="genius.svg"
   width="250.89999"
   height="33.5"
   inkscape:version="1.4 (e7c3feb100, 2024-10-09)"
   xmlns:inkscape="http://www.inkscape.org/namespaces/inkscape"
   xmlns:sodipodi="http://sodipodi.sourceforge.net/DTD/sodipodi-0.dtd"
   xmlns="http://www.w3.org/2000/svg"
   xmlns:svg="http://www.w3.org/2000/svg"><defs
   id="defs15" /><sodipodi:namedview
   id="namedview15"
   pagecolor="#000000"
   bordercolor="#000000"
   borderopacity="0.25"
   inkscape:showpageshadow="2"
   inkscape:pageopacity="0.0"
   inkscape:pagecheckerboard="0"
   inkscape:deskcolor="#d1d1d1"
   inkscape:zoom="5.3706564"
   inkscape:cx="124.93817"
   inkscape:cy="16.850827"
   inkscape:window-width="1536"
   inkscape:window-height="802"
   inkscape:window-x="0"
   inkscape:window-y="0"
   inkscape:window-maximized="1"
   inkscape:current-layer="g15" />
<g
   id="g15"
   style="fill:#ffffff;fill-opacity:1"
   transform="translate(-4.7,-0.6)">
	<path
   d="M 32.6,5.9 C 32.5,5.8 32.5,5.7 32.4,5.7 30.6,3.9 28.1,2.8 25.4,2.8 c -2.7,0 -5.2,1.1 -7,2.9 -0.5,0.5 -0.9,1 -1.3,1.6 v 0 c 0,0 0,0.1 0,0.2 0,0.2 0.1,0.3 0.3,0.3 h 0.1 v 0 c 1.1,-0.4 2.4,-0.7 3.7,-0.7 2.9,0 5.5,1.2 7.4,3 v 0 0 0 c 0.1,0 0.1,0.1 0.2,0.1 v 0 0 h 3.7 c 0.2,0 0.3,-0.1 0.3,-0.3 v -3.7 0 C 32.7,6.1 32.6,6 32.6,5.9 Z"
   id="path1"
   style="fill:#ffffff;fill-opacity:1" />
	<path
   d="m 32.4,17.8 h -2.5 -0.8 -0.5 v 0 0 c -2,0 -3.6,-1.5 -3.8,-3.5 v 0 C 24.8,14.1 24.7,14 24.5,14 v 0 0 0 0 c -0.8,0.1 -1.6,0.4 -2.1,0.9 v 0 L 22.3,15 v 0 l -0.1,0.1 v 0 l -0.1,0.1 v 0 c 0,0 0,0.1 -0.1,0.1 0,0 0,0 0,0.1 0,0 0,0.1 -0.1,0.1 0,0 0,0 0,0.1 0,0 0,0.1 -0.1,0.1 0,0 0,0 0,0.1 0,0 0,0.1 -0.1,0.1 0,0 0,0 0,0.1 v 0.1 c 0,0 0,0 0,0.1 v 0.1 0.1 0.1 0.1 0.1 0.1 0.1 0.1 0.1 0.1 0.1 0.1 0.1 0.1 c 0,0 0,0 0,0.1 v 0.1 c 0,0 0,0 0,0.1 0,0.1 0,0.1 0,0.2 v 0 0 0.1 c 0,2.1 1.7,3.7 3.8,3.7 h 1.8 0.9 c 0.2,0 0.3,0.1 0.3,0.3 v 1 c 0,0.2 0.1,0.3 0.3,0.3 h 0.1 c 1.6,-0.3 3.1,-1.1 4.3,-2.1 v 0 c 0.1,-0.1 0.1,-0.1 0.1,-0.2 v 0 0 -1.7 -0.3 -1.2 c -0.6,-0.1 -0.8,-0.2 -0.9,-0.2 z"
   id="path2"
   style="fill:#ffffff;fill-opacity:1" />
	<path
   d="m 32.2,29 c 0,0 -0.1,0 0,0 v 0 c -0.1,0 -0.1,0 0,0 v 0 c -2,0.7 -4.2,1.2 -6.4,1.2 -9.5,0 -17.3,-7.7 -17.3,-17.3 0,-2.2 0.4,-4.3 1.2,-6.3 v 0 -0.1 C 9.7,6.3 9.6,6.2 9.4,6.2 9.3,6.2 9.2,6.2 9.2,6.3 v 0 C 6.4,9.2 4.7,13.2 4.7,17.6 4.7,26.7 12,34 21.1,34 c 4.4,0 8.4,-1.7 11.3,-4.5 v 0 c 0.1,-0.1 0.1,-0.1 0.1,-0.2 0,-0.2 -0.1,-0.3 -0.3,-0.3 z"
   id="path3"
   style="fill:#ffffff;fill-opacity:1" />
	<path
   d="m 67,20.9 h 9 c 2.1,0 3.6,-1.4 3.6,-3.4 v -0.4 c 0,-0.2 -0.1,-0.3 -0.3,-0.3 H 66.9 c -0.2,0 -0.3,0.1 -0.3,0.3 v 3.4 c 0.1,0.3 0.3,0.4 0.4,0.4 z"
   id="path4"
   style="fill:#ffffff;fill-opacity:1" />
	<path
   d="M 80.2,3.8 H 67.1 c -0.2,0 -0.3,0.1 -0.3,0.3 v 3.4 c 0,0.2 0.1,0.3 0.3,0.3 h 9.8 c 2.1,0 3.6,-1.4 3.6,-3.4 V 4 c 0,0 -0.2,-0.2 -0.3,-0.2 z"
   id="path5"
   style="fill:#ffffff;fill-opacity:1" />
	<path
   d="m 80.2,30 v 0 H 64.6 c -2.5,0 -4,-1.5 -4,-4 V 2.2 1.2 C 60.6,1 60.5,0.9 60.3,0.9 v 0 C 57.5,1 55.8,2.7 55.8,5.6 v 23.8 c 0,2.9 1.7,4.7 4.7,4.7 h 16.4 c 2.2,0 3.7,-1.4 3.7,-3.4 V 30.4 C 80.5,30.1 80.3,30 80.2,30 Z"
   id="path6"
   style="fill:#ffffff;fill-opacity:1" />
	<path
   d="m 110.8,29.9 v 0 c -1.4,-0.3 -2.3,-1.5 -2.3,-3.2 V 1.5 1.4 c 0,-0.1 -0.1,-0.2 -0.2,-0.3 v 0 0 0 C 108,1 107.6,1 107.4,1 c -2.2,0 -3.7,1.6 -3.7,3.9 v 25.2 c 0,2.4 1.5,3.9 3.7,3.9 2.2,0 3.6,-1.5 3.7,-3.8 v 0 C 111,30 110.9,29.9 110.8,29.9 Z"
   id="path7"
   style="fill:#ffffff;fill-opacity:1" />
	<path
   d="m 131.6,29.9 c -0.1,0 -0.1,0 0,0 -0.2,0 -0.5,0 -0.6,0 -2.3,0.1 -3.5,-1.1 -4.5,-2.8 L 115.1,8.2 v 0 C 115,8.1 114.9,8 114.8,8 c -0.2,0 -0.3,0.1 -0.3,0.3 v 0 0 10.5 l 7.2,12 c 1,1.6 2.3,3.1 5.1,3.1 2.6,0 4.4,-1.3 5.1,-3.7 v -0.1 c 0,-0.1 -0.2,-0.2 -0.3,-0.2 z"
   id="path8"
   style="fill:#ffffff;fill-opacity:1" />
	<path
   d="m 129.2,20.1 c 0.2,0 0.3,-0.1 0.3,-0.3 v 0 0 V 1.5 1.3 C 129.5,1.2 129.4,1 129.3,1 v 0 c -0.3,-0.1 -0.6,-0.1 -0.9,-0.1 -2.2,0 -3.7,1.6 -3.7,3.9 v 8 l 4.3,7.1 c 0,0.1 0.1,0.2 0.2,0.2 z"
   id="path9"
   style="fill:#ffffff;fill-opacity:1" />
	<path
   d="m 162.3,29.9 v 0 0 C 160.8,29.6 160,28.4 160,26.7 V 1.5 1.3 C 160,1.1 159.9,1 159.7,1 v 0 0 c -0.3,-0.1 -0.6,-0.1 -0.9,-0.1 -2.2,0 -3.7,1.6 -3.7,3.9 V 30 c 0,2.4 1.5,3.9 3.7,3.9 2.2,0 3.6,-1.5 3.7,-3.8 v 0 c 0.1,-0.1 0,-0.2 -0.2,-0.2 z"
   id="path10"
   style="fill:#ffffff;fill-opacity:1" />
	<path
   d="m 209.4,28.6 c -0.1,0 -0.1,0 -0.2,0 l -0.1,0.1 c -1.8,0.9 -3.9,1.3 -6.3,1.3 -4.1,0 -7.3,-1.2 -9.5,-3.6 -2.3,-2.5 -3.5,-6.1 -3.5,-10.8 V 1.2 1 c 0,-0.2 -0.1,-0.3 -0.3,-0.3 v 0 0 c -0.3,-0.1 -0.6,-0.1 -0.9,-0.1 -2.2,0 -3.7,1.6 -3.7,3.9 v 14.4 c 0,9.5 5,15 13.7,15 4.8,0 8.5,-1.7 10.9,-4.8 l 0.1,-0.1 v 0 c 0,-0.1 0.1,-0.1 0.1,-0.2 0,-0.1 -0.1,-0.2 -0.3,-0.2 z"
   id="path11"
   style="fill:#ffffff;fill-opacity:1" />
	<path
   d="m 209.5,0.8 v 0 c -0.3,-0.1 -0.6,-0.1 -0.9,-0.1 -2.2,0 -3.7,1.6 -3.7,3.9 v 14.6 c 0,1.8 -0.3,3.4 -0.8,4.6 v 0.1 0 0 0 0.1 c 0,0.2 0.1,0.3 0.3,0.3 h 0.1 c 3.5,-0.7 5.3,-3.5 5.3,-8.4 V 1.3 1.1 v 0 c 0,-0.1 -0.1,-0.3 -0.3,-0.3 z"
   id="path12"
   style="fill:#ffffff;fill-opacity:1" />
	<path
   d="m 241.8,20.3 3.5,0.6 c 3.7,0.7 4.2,2.1 4.2,3 v 0 0 c 0,0.2 0.1,0.3 0.3,0.3 v 0 0 0 c 2.8,-0.4 4.5,-1.8 4.5,-3.7 0,-1.9 -1.6,-3.1 -4.7,-3.7 l -3.5,-0.6 c -8.1,-1.5 -9.8,-5.9 -9.8,-9.3 0,-1.8 0.5,-3.4 1.5,-4.8 l 0.1,-0.2 v 0 -0.1 c 0,-0.2 -0.1,-0.3 -0.3,-0.3 h -0.1 v 0 0 0 l -0.1,0.1 c -3.7,1.7 -5.9,4.9 -5.9,8.7 0,5.3 3.7,8.8 10.3,10 z"
   id="path13"
   style="fill:#ffffff;fill-opacity:1" />
	<path
   d="m 255.2,28.5 c 0,0 -0.1,0 0,0 h -0.1 v 0 0 l -0.1,0.1 c -2,0.9 -4.3,1.4 -6.9,1.4 -4.1,0 -7.7,-1.2 -11.1,-3.7 -0.9,-0.7 -1.3,-1.5 -1.4,-2.4 v 0 0 c 0,-0.1 -0.1,-0.3 -0.2,-0.3 v 0 c -0.3,-0.1 -0.7,-0.2 -1,-0.2 -1.1,0 -2.1,0.6 -2.8,1.5 -0.6,0.8 -0.9,1.8 -0.8,2.7 0.1,1 0.7,1.9 1.6,2.6 3.5,2.6 7.2,3.8 11.5,3.8 5.2,0 9.4,-1.8 11.5,-4.9 l 0.1,-0.1 v 0 c 0,0 0.1,-0.1 0.1,-0.2 -0.1,-0.1 -0.2,-0.3 -0.4,-0.3 z"
   id="path14"
   style="fill:#ffffff;fill-opacity:1" />
	<path
   d="m 242.4,6.7 c 0,0.2 0.1,0.3 0.3,0.3 v 0 0 c 0.1,0 0.1,0 0.2,0 0.1,0 0.2,0 0.3,0 2.8,0 4.3,0.7 6.2,2.1 0.8,0.6 1.6,0.9 2.4,0.9 v 0 c 1.1,0 2.1,-0.5 2.8,-1.5 0.5,-0.7 0.8,-1.5 0.8,-2.4 v 0 0 c 0,-0.1 -0.1,-0.3 -0.2,-0.3 v 0 0 c -0.4,-0.1 -0.8,-0.3 -1.2,-0.6 -1.9,-1.4 -3.7,-2.3 -6.6,-2.3 -3,0 -5.1,1.4 -5,3.5 0,0 0,0.1 0,0.3 z"
   id="path15"
   style="fill:#ffffff;fill-opacity:1" />
</g>
</svg>
