<?xml version="1.0" encoding="UTF-8" standalone="no"?>
<!-- Generator: Adobe Illustrator 25.0.1, SVG Export Plug-In . SVG Version: 6.00 Build 0)  -->

<svg
   version="1.1"
   id="Слой_1"
   x="0px"
   y="0px"
   viewBox="0 0 53.9 42.8"
   style="enable-background:new 0 0 53.9 42.8;"
   xml:space="preserve"
   sodipodi:docname="mirea_modern.svg"
   inkscape:version="1.4 (e7c3feb100, 2024-10-09)"
   xmlns:inkscape="http://www.inkscape.org/namespaces/inkscape"
   xmlns:sodipodi="http://sodipodi.sourceforge.net/DTD/sodipodi-0.dtd"
   xmlns="http://www.w3.org/2000/svg"
   xmlns:svg="http://www.w3.org/2000/svg"><defs
   id="defs13" /><sodipodi:namedview
   id="namedview13"
   pagecolor="#000000"
   bordercolor="#000000"
   borderopacity="0.25"
   inkscape:showpageshadow="2"
   inkscape:pageopacity="0.0"
   inkscape:pagecheckerboard="0"
   inkscape:deskcolor="#d1d1d1"
   inkscape:zoom="13.85514"
   inkscape:cx="26.921417"
   inkscape:cy="21.4"
   inkscape:window-width="1536"
   inkscape:window-height="802"
   inkscape:window-x="0"
   inkscape:window-y="0"
   inkscape:window-maximized="1"
   inkscape:current-layer="Слой_1" />
<style
   type="text/css"
   id="style1">
	.st0{fill:#3164AF;}
</style>
<g
   id="g13"
   style="fill:#ffffff;fill-opacity:1">
	<path
   class="st0"
   d="M9.2,25.8c-0.3-0.3-0.7-0.4-1.2-0.4H5.7v0.5c0.4,0,0.6,0,0.6,0v0H8c0.4,0,0.6,0.1,0.8,0.2   c0.2,0.2,0.3,0.4,0.3,0.7c0,0.3-0.1,0.6-0.3,0.7c-0.2,0.2-0.5,0.2-0.8,0.2l-2.3,0v2.6h0.5v-2.1H8c0.5,0,0.9-0.1,1.2-0.4   c0.3-0.3,0.4-0.6,0.4-1C9.6,26.4,9.5,26.1,9.2,25.8z"
   id="path1"
   style="fill:#ffffff;fill-opacity:1" />
	<path
   class="st0"
   d="M37.1,25.8c-0.3-0.3-0.7-0.4-1.2-0.4h-2.3v0.5c0.4,0,0.9,0,0.9,0v0h1.4c0.4,0,0.6,0.1,0.8,0.2   c0.2,0.2,0.3,0.4,0.3,0.7c0,0.3-0.1,0.6-0.3,0.7c-0.2,0.2-0.5,0.2-0.8,0.2h-1.8l-0.5,0v2.6h0.5v-2.1h1.8c0.5,0,0.9-0.1,1.2-0.4   c0.3-0.3,0.4-0.6,0.4-1C37.5,26.4,37.3,26.1,37.1,25.8z"
   id="path2"
   style="fill:#ffffff;fill-opacity:1" />
	<g
   id="g3"
   style="fill:#ffffff;fill-opacity:1">
		<path
   class="st0"
   d="M14.1,25.9v-0.5h-4.1v0.5C10.6,25.8,13.6,25.9,14.1,25.9z"
   id="path3"
   style="fill:#ffffff;fill-opacity:1" />
		<rect
   x="11.9"
   y="26.4"
   class="st0"
   width="0.5"
   height="3.9"
   id="rect3"
   style="fill:#ffffff;fill-opacity:1" />
	</g>
	<g
   id="g5"
   style="fill:#ffffff;fill-opacity:1">
		<path
   class="st0"
   d="M40.2,25.8c0.5,0,1,0.2,1.4,0.5c0.2,0.2,0.4,0.5,0.5,0.8c0.2,0,0.4,0,0.5,0c-0.1-0.4-0.3-0.7-0.6-1    c-0.5-0.5-1.1-0.7-1.8-0.7c-0.5,0-0.9,0.1-1.2,0.3c-0.4,0.2-0.6,0.5-0.8,0.9h0.6C39,26,39.5,25.8,40.2,25.8z"
   id="path4"
   style="fill:#ffffff;fill-opacity:1" />
		<path
   class="st0"
   d="M42.2,27.6h-2.8v0.5h2.8c0,0.5-0.3,1-0.6,1.3c-0.4,0.3-0.8,0.5-1.4,0.5c-0.7,0-1.2-0.3-1.5-0.8h-0.6    c0.2,0.4,0.5,0.7,0.8,0.9c0.4,0.2,0.8,0.3,1.2,0.3c0.7,0,1.3-0.2,1.8-0.7c0.5-0.5,0.7-1.1,0.7-1.8c0-0.1,0-0.2,0-0.2    C42.7,27.6,42.2,27.6,42.2,27.6z"
   id="path5"
   style="fill:#ffffff;fill-opacity:1" />
	</g>
	<polygon
   class="st0"
   points="26,25.4 23.8,29.8 21.5,25.4 21,25.4 21.3,26.1 21.3,26.1 23.4,30.3 24.1,30.3 26.2,26.1 26.2,30.3    26.7,30.3 26.7,25.4  "
   id="polygon5"
   style="fill:#ffffff;fill-opacity:1" />
	<g
   id="g7"
   style="fill:#ffffff;fill-opacity:1">
		<polygon
   class="st0"
   points="28.5,25.4 28,25.4 28,30.3 28.5,30.3   "
   id="polygon6"
   style="fill:#ffffff;fill-opacity:1" />
		<polygon
   class="st0"
   points="31.6,25.4 29.3,28.6 29.3,29.4 31.7,26 31.7,30.3 32.2,30.3 32.2,25.4   "
   id="polygon7"
   style="fill:#ffffff;fill-opacity:1" />
	</g>
	<g
   id="g8"
   style="fill:#ffffff;fill-opacity:1">
		<path
   class="st0"
   d="M16.3,27.9l-1.3-2.5h-0.6l1.6,3C16.2,28.2,16.3,28,16.3,27.9z"
   id="path7"
   style="fill:#ffffff;fill-opacity:1" />
		<path
   class="st0"
   d="M18.2,25.4l-1.9,3.9c-0.1,0.2-0.2,0.4-0.3,0.5c-0.1,0.1-0.3,0.1-0.5,0.1h-0.3v0.5h0.4c0.2,0,0.4,0,0.5-0.1    c0.1-0.1,0.3-0.2,0.4-0.3c0.1-0.1,0.2-0.4,0.4-0.7l1.9-3.8H18.2z"
   id="path8"
   style="fill:#ffffff;fill-opacity:1" />
	</g>
	<g
   id="g10"
   style="fill:#ffffff;fill-opacity:1">
		<path
   class="st0"
   d="M46,28.7h-1.2c-0.1,0.2-0.1,0.3-0.2,0.5h1.6L46,28.7z"
   id="path9"
   style="fill:#ffffff;fill-opacity:1" />
		<path
   class="st0"
   d="M45.8,25.4h-0.6l-2.2,5h0.5l0.5-1.2h0l0.6-1.3l0,0l0.9-2l1,2.3l0,0c0,0,0,0.1,0.1,0.1l0.1,0.3h0    c0.1,0.1,0.1,0.3,0.2,0.5h0l0.5,1.2H48L45.8,25.4z"
   id="path10"
   style="fill:#ffffff;fill-opacity:1" />
	</g>
	<g
   id="g12"
   style="fill:#ffffff;fill-opacity:1">
		<path
   class="st0"
   d="M39.5,31.4c-2.6,3-6.5,4.8-10.7,4.8c-3.1,0-6-1-8.4-2.7l0,0.6c2.4,1.7,5.3,2.6,8.4,2.6    c4.5,0,8.6-2.1,11.3-5.3H39.5z"
   id="path11"
   style="fill:#ffffff;fill-opacity:1" />
		<path
   class="st0"
   d="M28.8,7.6c7.9,0,14.4,6.4,14.4,14.4c0,1.1-0.1,2.1-0.4,3.2h0.5c0.2-1,0.3-2.1,0.3-3.2    c0-8.2-6.6-14.8-14.8-14.8S14,13.7,14,21.9c0,0.8,0.1,1.6,0.2,2.4h0.5c-0.1-0.8-0.2-1.6-0.2-2.4C14.4,14,20.9,7.6,28.8,7.6z"
   id="path12"
   style="fill:#ffffff;fill-opacity:1" />
	</g>
</g>
</svg>
