<?xml version="1.0" encoding="UTF-8" standalone="no"?>
<svg
   viewBox="0 0 75 33.51"
   version="1.1"
   id="svg8"
   sodipodi:docname="soundcloud_icon.svg"
   inkscape:version="1.4 (e7c3feb100, 2024-10-09)"
   xmlns:inkscape="http://www.inkscape.org/namespaces/inkscape"
   xmlns:sodipodi="http://sodipodi.sourceforge.net/DTD/sodipodi-0.dtd"
   xmlns="http://www.w3.org/2000/svg"
   xmlns:svg="http://www.w3.org/2000/svg">
  <defs
     id="defs8" />
  <sodipodi:namedview
     id="namedview8"
     pagecolor="#000000"
     bordercolor="#000000"
     borderopacity="0.25"
     inkscape:showpageshadow="2"
     inkscape:pageopacity="0.0"
     inkscape:pagecheckerboard="0"
     inkscape:deskcolor="#d1d1d1"
     inkscape:zoom="17.696211"
     inkscape:cx="37.522157"
     inkscape:cy="16.754999"
     inkscape:window-width="1536"
     inkscape:window-height="802"
     inkscape:window-x="0"
     inkscape:window-y="0"
     inkscape:window-maximized="1"
     inkscape:current-layer="svg8" />
  <g
     id="Layer_2"
     data-name="Layer 2"
     style="fill:#ffffff;fill-opacity:1">
    <g
       id="Orange"
       style="fill:#ffffff;fill-opacity:1">
      <path
         d="M75,23.6a10.5,10.5,0,0,1-10.63,9.91H38.82a2.14,2.14,0,0,1-2.12-2.13V3.87a2.34,2.34,0,0,1,1.41-2.24S40.46,0,45.41,0A16.74,16.74,0,0,1,54,2.36a17,17,0,0,1,8,11.08,9.8,9.8,0,0,1,2.71-.37A10.23,10.23,0,0,1,75,23.6Z"
         id="path1"
         style="fill:#ffffff;fill-opacity:1" />
      <path
         d="M33.51,5.61a.83.83,0,1,0-1.65,0c-.7,9.25-1.24,17.92,0,27.14a.83.83,0,0,0,1.65,0C34.84,23.45,34.28,14.94,33.51,5.61Z"
         id="path2"
         style="fill:#ffffff;fill-opacity:1" />
      <path
         d="M28.35,8.81a.87.87,0,0,0-1.73,0,103.7,103.7,0,0,0,0,23.95.87.87,0,0,0,1.72,0A93.2,93.2,0,0,0,28.35,8.81Z"
         id="path3"
         style="fill:#ffffff;fill-opacity:1" />
      <path
         d="M23.16,8a.84.84,0,0,0-1.67,0c-.79,8.44-1.19,16.32,0,24.74a.83.83,0,0,0,1.66,0C24.38,24.21,24,16.55,23.16,8Z"
         id="path4"
         style="fill:#ffffff;fill-opacity:1" />
      <path
         d="M18,10.41a.86.86,0,0,0-1.72,0,87.61,87.61,0,0,0,0,22.36.85.85,0,0,0,1.69,0A81.68,81.68,0,0,0,18,10.41Z"
         id="path5"
         style="fill:#ffffff;fill-opacity:1" />
      <path
         d="M12.79,16a.85.85,0,0,0-1.7,0c-1.23,5.76-.65,11,.05,16.83a.81.81,0,0,0,1.6,0C13.51,26.92,14.1,21.8,12.79,16Z"
         id="path6"
         style="fill:#ffffff;fill-opacity:1" />
      <path
         d="M7.62,15.12a.88.88,0,0,0-1.75,0C4.78,21,5.14,26.18,5.9,32.05c.08.89,1.59.88,1.69,0C8.43,26.09,8.82,21.06,7.62,15.12Z"
         id="path7"
         style="fill:#ffffff;fill-opacity:1" />
      <path
         d="M2.4,18A.88.88,0,0,0,.65,18c-1,3.95-.69,7.22.07,11.18a.82.82,0,0,0,1.63,0C3.23,25.14,3.66,21.94,2.4,18Z"
         id="path8"
         style="fill:#ffffff;fill-opacity:1" />
    </g>
  </g>
</svg>
