<?xml version="1.0" encoding="UTF-8" standalone="no"?>
<!-- Created with Inkscape (http://www.inkscape.org/) -->

<svg
   version="1.1"
   id="svg1"
   width="507.89334"
   height="113.38667"
   viewBox="0 0 507.89334 113.38667"
   sodipodi:docname="youtube.svg"
   inkscape:version="1.4 (e7c3feb100, 2024-10-09)"
   xmlns:inkscape="http://www.inkscape.org/namespaces/inkscape"
   xmlns:sodipodi="http://sodipodi.sourceforge.net/DTD/sodipodi-0.dtd"
   xmlns="http://www.w3.org/2000/svg"
   xmlns:svg="http://www.w3.org/2000/svg">
  <defs
     id="defs1" />
  <sodipodi:namedview
     id="namedview1"
     pagecolor="#000000"
     bordercolor="#000000"
     borderopacity="0.25"
     inkscape:showpageshadow="2"
     inkscape:pageopacity="0.0"
     inkscape:pagecheckerboard="0"
     inkscape:deskcolor="#d1d1d1"
     inkscape:zoom="2.738764"
     inkscape:cx="128.89026"
     inkscape:cy="56.777437"
     inkscape:window-width="1536"
     inkscape:window-height="802"
     inkscape:window-x="0"
     inkscape:window-y="0"
     inkscape:window-maximized="1"
     inkscape:current-layer="g1">
    <inkscape:page
       x="0"
       y="0"
       inkscape:label="1"
       id="page1"
       width="507.89334"
       height="113.38667"
       margin="0"
       bleed="0" />
  </sodipodi:namedview>
  <g
     id="g1"
     inkscape:groupmode="layer"
     inkscape:label="1">
    <g
       id="group-R5"
       style="fill:#ffffff;fill-opacity:1">
      <path
         id="path2"
         d="m 1898.01,160.164 c 6.65,17.363 9.99,45.742 9.99,85.125 v 165.945 c 0,38.223 -3.34,66.161 -9.99,83.832 -6.66,17.661 -18.39,26.5 -35.18,26.5 -16.22,0 -27.67,-8.839 -34.32,-26.5 -6.66,-17.671 -9.99,-45.609 -9.99,-83.832 V 245.289 c 0,-39.383 3.18,-67.762 9.56,-85.125 6.36,-17.383 17.94,-26.062 34.75,-26.062 16.79,0 28.52,8.679 35.18,26.062 z M 1763.36,76.7578 c -24.05,16.1992 -41.14,41.4062 -51.26,75.5862 -10.14,34.16 -15.2,79.629 -15.2,136.39 v 77.321 c 0,57.336 5.78,103.386 17.37,138.133 11.58,34.75 29.67,60.082 54.3,76.015 24.61,15.922 56.9,23.891 96.87,23.891 39.38,0 70.94,-8.114 94.69,-24.324 23.74,-16.215 41.12,-41.563 52.13,-76.016 10.99,-34.465 16.5,-80.363 16.5,-137.699 v -77.321 c 0,-56.761 -5.36,-102.379 -16.07,-136.832 -10.72,-34.461 -28.1,-59.6559 -52.13,-75.5739 -24.04,-15.9297 -56.61,-23.8984 -97.73,-23.8984 -42.29,0 -75.45,8.1172 -99.47,24.3281"
         style="fill:#ffffff;fill-opacity:1;fill-rule:nonzero;stroke:none"
         transform="matrix(0.13333333,0,0,-0.13333333,0,113.38667)" />
      <path
         id="path3"
         d="m 3623.76,511.609 c -6.07,-7.527 -10.14,-19.839 -12.16,-36.918 -2.04,-17.089 -3.03,-43.003 -3.03,-77.753 v -38.227 h 87.73 v 38.227 c 0,34.164 -1.16,60.082 -3.47,77.753 -2.32,17.661 -6.51,30.106 -12.59,37.352 -6.09,7.242 -15.5,10.867 -28.24,10.867 -12.75,0 -22.16,-3.777 -28.24,-11.301 z m -15.19,-224.14 v -26.934 c 0,-34.18 0.99,-59.805 3.03,-76.883 2.02,-17.089 6.21,-29.543 12.6,-37.363 6.37,-7.812 16.2,-11.73 29.54,-11.73 17.94,0 30.26,6.953 36.92,20.859 6.65,13.898 10.27,37.062 10.85,69.504 l 103.39,-6.086 c 0.58,-4.648 0.87,-11.016 0.87,-19.109 0,-49.239 -13.46,-86.02 -40.4,-110.3442 -26.92,-24.3164 -65.02,-36.4844 -114.24,-36.4844 -59.07,0 -100.49,18.5274 -124.23,55.6056 -23.76,37.051 -35.63,94.394 -35.63,172.012 v 92.964 c 0,79.926 12.31,138.266 36.93,175.059 24.61,36.774 66.75,55.164 126.41,55.164 41.11,0 72.68,-7.531 94.69,-22.586 22,-15.07 37.5,-38.527 46.48,-70.371 8.98,-31.859 13.47,-75.883 13.47,-132.055 v -91.222 h -200.68"
         style="fill:#ffffff;fill-opacity:1;fill-rule:nonzero;stroke:none"
         transform="matrix(0.13333333,0,0,-0.13333333,0,113.38667)" />
      <path
         id="path4"
         d="m 1471.42,297.441 -136.4,492.598 h 119.02 l 47.78,-223.277 c 12.17,-55.035 21.14,-101.946 26.93,-140.739 h 3.48 c 4.05,27.797 13.03,74.415 26.93,139.868 l 49.52,224.148 H 1727.7 L 1589.57,297.441 V 61.1211 H 1471.42 V 297.441"
         style="fill:#ffffff;fill-opacity:1;fill-rule:nonzero;stroke:none"
         transform="matrix(0.13333333,0,0,-0.13333333,0,113.38667)" />
      <path
         id="path5"
         d="M 2415.86,593.676 V 61.1211 h -93.83 l -10.43,65.1559 h -2.6 c -25.49,-49.2262 -63.72,-73.8356 -114.68,-73.8356 -35.33,0 -61.39,11.5703 -78.19,34.7461 -16.8,23.1525 -25.19,59.3635 -25.19,108.5935 v 397.895 h 119.89 V 202.734 c 0,-23.761 2.61,-40.695 7.82,-50.82 5.21,-10.148 13.9,-15.207 26.06,-15.207 10.43,0 20.42,3.176 29.97,9.563 9.56,6.367 16.65,14.46 21.29,24.312 v 423.094 h 119.89"
         style="fill:#ffffff;fill-opacity:1;fill-rule:nonzero;stroke:none"
         transform="matrix(0.13333333,0,0,-0.13333333,0,113.38667)" />
      <path
         id="path6"
         d="M 3030.82,593.676 V 61.1211 h -93.83 l -10.43,65.1559 h -2.59 c -25.51,-49.2262 -63.73,-73.8356 -114.69,-73.8356 -35.33,0 -61.39,11.5703 -78.19,34.7461 -16.8,23.1525 -25.19,59.3635 -25.19,108.5935 v 397.895 h 119.89 V 202.734 c 0,-23.761 2.6,-40.695 7.81,-50.82 5.22,-10.148 13.91,-15.207 26.07,-15.207 10.43,0 20.42,3.176 29.97,9.563 9.56,6.367 16.65,14.46 21.29,24.312 v 423.094 h 119.89"
         style="fill:#ffffff;fill-opacity:1;fill-rule:nonzero;stroke:none"
         transform="matrix(0.13333333,0,0,-0.13333333,0,113.38667)" />
      <path
         id="path7"
         d="M 2741.64,693.586 H 2622.62 V 61.1211 H 2505.34 V 693.586 h -119.02 v 96.437 h 355.32 v -96.437"
         style="fill:#ffffff;fill-opacity:1;fill-rule:nonzero;stroke:none"
         transform="matrix(0.13333333,0,0,-0.13333333,0,113.38667)" />
      <path
         id="path8"
         d="m 3317.72,291.316 c 0,-38.808 -1.61,-69.218 -4.79,-91.218 -3.18,-22.024 -8.54,-37.657 -16.07,-46.914 -7.53,-9.27 -17.68,-13.899 -30.4,-13.899 -9.86,0 -18.98,2.305 -27.37,6.953 -8.41,4.629 -15.2,11.575 -20.42,20.852 v 302.328 c 4.05,14.469 11,26.348 20.85,35.621 9.85,9.25 20.55,13.895 32.14,13.895 12.17,0 21.57,-4.782 28.24,-14.332 6.65,-9.555 11.29,-25.629 13.9,-48.223 2.61,-22.582 3.92,-54.727 3.92,-96.426 z m 109.89,217.231 c -7.25,33.582 -18.98,57.906 -35.19,72.976 -16.22,15.047 -38.52,22.582 -66.89,22.582 -22.01,0 -42.57,-6.23 -61.68,-18.675 -19.11,-12.457 -33.89,-28.821 -44.31,-49.09 h -0.88 l 0.01,280.617 H 3103.13 V 61.1328 h 99.03 l 12.17,50.3792 h 2.6 c 9.26,-17.9495 23.16,-32.1409 41.7,-42.5667 18.53,-10.4219 39.1,-15.6367 61.69,-15.6367 40.53,0 70.36,18.6836 89.48,56.0354 19.11,37.363 28.67,95.703 28.67,175.058 v 84.27 c 0,59.648 -3.63,106.273 -10.86,139.875"
         style="fill:#ffffff;fill-opacity:1;fill-rule:nonzero;stroke:none"
         transform="matrix(0.13333333,0,0,-0.13333333,0,113.38667)" />
      <path
         id="path9"
         style="fill:#ffffff;fill-opacity:1;fill-rule:nonzero;stroke:none"
         d="M 607.42677 850.40005 C 607.42677 850.40005 227.53009 850.4013 132.78809 825.0143 C 80.522489 811.0453 39.354543 769.87796 25.385743 717.61196 C -0.00095717786 622.86996 0 425.19984 0 425.19984 C 0 425.19984 -0.00095717786 227.52572 25.385743 132.78772 C 39.354543 80.526024 80.522489 39.350277 132.78809 25.385377 C 227.53009 -0.0091290529 607.42677 -0.00036562501 607.42677 -0.00036562501 C 607.42677 -0.00036562501 987.32146 -0.0091290529 1082.0655 25.385377 C 1134.3355 39.350277 1175.4832 80.526024 1189.4532 132.78772 C 1214.8332 227.52572 1214.8389 425.19984 1214.8389 425.19984 C 1214.8389 425.19984 1214.8332 622.86996 1189.4532 717.61196 C 1175.4832 769.87796 1134.3355 811.0453 1082.0655 825.0143 C 987.32146 850.4013 607.42677 850.40005 607.42677 850.40005 z M 485.93263 607.42641 L 801.54787 425.19984 L 485.93263 242.97327 L 485.93263 607.42641 z "
         transform="matrix(0.13333333,0,0,-0.13333333,0,113.38667)" />
    </g>
  </g>
</svg>
